<svg xmlns="http://www.w3.org/2000/svg" viewBox="0 0 137 33.66"><defs><style>.cls-1{fill:#00ab58;}.cls-2{fill:#fff;}</style></defs><g id="Camada_2" data-name="Camada 2"><g id="Lista"><rect class="cls-1" width="137" height="33.66" rx="5"/><path class="cls-2" d="M41.16,18.86H38.1l-.74,2.2H35.88L39,12.66h1.36l3.08,8.4H41.92Zm-.38-1.12-1.13-3.27h-.06l-1.1,3.27Z"/><path class="cls-2" d="M49.64,19.78v1.28H44.45v-8.4H45.9v7.12Z"/><path class="cls-2" d="M56,19.78v1.28H50.84l0-8.4h1.47v7.12Z"/><path class="cls-2" d="M61.49,20.59a3.59,3.59,0,0,1-1.31-1.54,5.37,5.37,0,0,1-.44-2.2,5.46,5.46,0,0,1,.44-2.22,3.58,3.58,0,0,1,3.4-2.14,3.56,3.56,0,0,1,2.06.58A3.51,3.51,0,0,1,67,14.63a5.24,5.24,0,0,1,.45,2.22,5.21,5.21,0,0,1-.45,2.2,3.46,3.46,0,0,1-1.31,1.54,3.64,3.64,0,0,1-2.06.57A3.71,3.71,0,0,1,61.49,20.59ZM65.25,19a3.67,3.67,0,0,0,.6-2.18,4.13,4.13,0,0,0-.27-1.53,2.43,2.43,0,0,0-.77-1.09,1.91,1.91,0,0,0-1.23-.4,2,2,0,0,0-1.24.4,2.53,2.53,0,0,0-.78,1.09,4.24,4.24,0,0,0-.27,1.55,4.38,4.38,0,0,0,.26,1.53,2.47,2.47,0,0,0,.78,1.07,2,2,0,0,0,1.25.4A1.94,1.94,0,0,0,65.25,19Z"/><path class="cls-2" d="M70.19,13.94v2.27h3.33v1.14H70.19v3.71H68.73v-8.4H74v1.28Z"/><path class="cls-2" d="M76.35,13.94v2.27h3.32v1.14H76.35v3.71H74.88v-8.4h5.24v1.28Z"/><path class="cls-2" d="M82.49,13.94v2.27h3.42v1.15H82.49v2.42h4v1.28H81v-8.4h5.42v1.28Z"/><path class="cls-2" d="M90.53,17.92H89.3v3.14H87.84v-8.4h3a3.42,3.42,0,0,1,1.68.38,2.4,2.4,0,0,1,1,1,2.79,2.79,0,0,1,.31,1.29,2.62,2.62,0,0,1-.46,1.52,2.4,2.4,0,0,1-1.41.94l2,3.29H92.44Zm-1.23-1.2h1.35a2.28,2.28,0,0,0,1.27-.33,1.15,1.15,0,0,0,.52-1.08,1.13,1.13,0,0,0-.51-1.06,2.5,2.5,0,0,0-1.28-.31H89.3Z"/><path class="cls-2" d="M96.37,20.77a2.76,2.76,0,0,1-1.45-2.39v-.07h1.6v.07a1.55,1.55,0,0,0,.17.68,1.43,1.43,0,0,0,.52.58,1.63,1.63,0,0,0,.89.23,1.67,1.67,0,0,0,1.07-.33,1.11,1.11,0,0,0,.42-.9,1,1,0,0,0-.33-.77,1.79,1.79,0,0,0-.82-.39l-1.09-.21a4.18,4.18,0,0,1-1.5-.67,1.9,1.9,0,0,1-.71-1.67,2.26,2.26,0,0,1,.37-1.3,2.29,2.29,0,0,1,1-.84,3.51,3.51,0,0,1,1.49-.3,3.4,3.4,0,0,1,1.62.37,2.66,2.66,0,0,1,1,1,2.45,2.45,0,0,1,.35,1.24v0H99.4v0a1.53,1.53,0,0,0-.14-.6,1.24,1.24,0,0,0-.47-.53,1.55,1.55,0,0,0-.85-.21,1.4,1.4,0,0,0-1,.33,1.13,1.13,0,0,0-.36.86.91.91,0,0,0,.33.74,1.82,1.82,0,0,0,.84.38l1,.22a3.87,3.87,0,0,1,1.62.73,1.9,1.9,0,0,1,.69,1.61,2.37,2.37,0,0,1-.39,1.34,2.52,2.52,0,0,1-1.08.9,3.62,3.62,0,0,1-1.57.33A3.54,3.54,0,0,1,96.37,20.77Z"/></g></g></svg>