<svg xmlns="http://www.w3.org/2000/svg" viewBox="0 0 138 34.66"><defs><style>.cls-1{fill:#1e2d38;}.cls-2{fill:#fff;}</style></defs><g id="Camada_2" data-name="Camada 2"><g id="Lista"><path class="cls-1" d="M132.5,34.66H5.5A5.51,5.51,0,0,1,0,29.16V5.5A5.51,5.51,0,0,1,5.5,0h127A5.51,5.51,0,0,1,138,5.5V29.16A5.51,5.51,0,0,1,132.5,34.66ZM5.5,1A4.51,4.51,0,0,0,1,5.5V29.16a4.51,4.51,0,0,0,4.5,4.5h127a4.51,4.51,0,0,0,4.5-4.5V5.5A4.51,4.51,0,0,0,132.5,1Z"/><path class="cls-2" d="M41.66,19.36H38.6l-.74,2.2H36.38l3.08-8.4h1.36l3.08,8.4H42.42Zm-.38-1.12L40.15,15h-.06L39,18.24Z"/><path class="cls-2" d="M50.14,20.28v1.28H45v-8.4H46.4v7.12Z"/><path class="cls-2" d="M56.52,20.28v1.28H51.34l0-8.4h1.47v7.12Z"/><path class="cls-2" d="M62,21.09a3.59,3.59,0,0,1-1.31-1.54,5.37,5.37,0,0,1-.44-2.2,5.46,5.46,0,0,1,.44-2.22A3.58,3.58,0,0,1,64.08,13a3.56,3.56,0,0,1,2.06.58,3.51,3.51,0,0,1,1.31,1.56,5.24,5.24,0,0,1,.44,2.22,5.21,5.21,0,0,1-.44,2.2,3.46,3.46,0,0,1-1.31,1.54,3.64,3.64,0,0,1-2.06.57A3.71,3.71,0,0,1,62,21.09Zm3.76-1.59a3.67,3.67,0,0,0,.6-2.18,4.13,4.13,0,0,0-.27-1.53,2.43,2.43,0,0,0-.77-1.09,1.91,1.91,0,0,0-1.23-.4,2,2,0,0,0-1.24.4,2.53,2.53,0,0,0-.78,1.09,4.24,4.24,0,0,0-.27,1.55,4.38,4.38,0,0,0,.26,1.53,2.47,2.47,0,0,0,.78,1.07,2,2,0,0,0,1.25.4A1.94,1.94,0,0,0,65.75,19.5Z"/><path class="cls-2" d="M70.69,14.44v2.27H74v1.14H70.69v3.71H69.23v-8.4h5.23v1.28Z"/><path class="cls-2" d="M76.85,14.44v2.27h3.32v1.14H76.85v3.71H75.38v-8.4h5.24v1.28Z"/><path class="cls-2" d="M83,14.44v2.27h3.42v1.15H83v2.42h4v1.28H81.54v-8.4H87v1.28Z"/><path class="cls-2" d="M91,18.42H89.8v3.14H88.34v-8.4h3a3.42,3.42,0,0,1,1.68.38,2.4,2.4,0,0,1,1,1,2.79,2.79,0,0,1,.31,1.29,2.62,2.62,0,0,1-.46,1.52,2.4,2.4,0,0,1-1.41.94l2,3.29H92.94Zm-1.23-1.2h1.35a2.28,2.28,0,0,0,1.27-.33,1.15,1.15,0,0,0,.52-1.08,1.13,1.13,0,0,0-.51-1.06,2.5,2.5,0,0,0-1.28-.31H89.8Z"/><path class="cls-2" d="M96.87,21.27a2.76,2.76,0,0,1-1.45-2.39v-.07H97v.07a1.55,1.55,0,0,0,.17.68,1.43,1.43,0,0,0,.52.58,1.63,1.63,0,0,0,.89.23A1.67,1.67,0,0,0,99.67,20a1.11,1.11,0,0,0,.42-.9,1,1,0,0,0-.33-.77,1.79,1.79,0,0,0-.82-.39l-1.09-.21a4.18,4.18,0,0,1-1.5-.67,1.9,1.9,0,0,1-.71-1.67,2.26,2.26,0,0,1,.37-1.3,2.29,2.29,0,0,1,1-.84A3.48,3.48,0,0,1,98.5,13a3.4,3.4,0,0,1,1.62.37,2.66,2.66,0,0,1,1,1,2.45,2.45,0,0,1,.35,1.24v0H99.9v0a1.53,1.53,0,0,0-.14-.6,1.24,1.24,0,0,0-.47-.53,1.55,1.55,0,0,0-.85-.21,1.4,1.4,0,0,0-1,.33,1.13,1.13,0,0,0-.36.86.91.91,0,0,0,.33.74,1.82,1.82,0,0,0,.84.38l1,.22a3.87,3.87,0,0,1,1.62.73,1.9,1.9,0,0,1,.69,1.61,2.3,2.3,0,0,1-.4,1.34,2.44,2.44,0,0,1-1.07.9,3.65,3.65,0,0,1-1.57.33A3.54,3.54,0,0,1,96.87,21.27Z"/></g></g></svg>