<svg xmlns="http://www.w3.org/2000/svg" viewBox="0 0 38.29 14.42"><defs><style>.cls-1{fill:#00ab58;}.cls-2{fill:#fff;}</style></defs><g id="Camada_2" data-name="Camada 2"><g id="Menu"><rect class="cls-1" width="38.29" height="14.42" rx="6.18"/><path class="cls-2" d="M8.08,10.2a2.08,2.08,0,0,1-.82-.79,2,2,0,0,1-.28-1V8.33H8.19v.06a1.07,1.07,0,0,0,.13.51,1.05,1.05,0,0,0,.4.44,1.17,1.17,0,0,0,.67.18,1.24,1.24,0,0,0,.82-.26.83.83,0,0,0,.32-.68A.75.75,0,0,0,10.28,8a1.23,1.23,0,0,0-.63-.29l-.83-.17A3.07,3.07,0,0,1,7.69,7a1.44,1.44,0,0,1-.55-1.28,1.71,1.71,0,0,1,1-1.62,2.63,2.63,0,0,1,1.12-.23,2.53,2.53,0,0,1,1.24.29,2,2,0,0,1,.78.73,1.84,1.84,0,0,1,.26.93v0H10.38v0a1.31,1.31,0,0,0-.1-.45A.91.91,0,0,0,9.92,5a1.18,1.18,0,0,0-.65-.17,1,1,0,0,0-.74.26.84.84,0,0,0-.27.64.72.72,0,0,0,.24.57,1.4,1.4,0,0,0,.64.29l.79.17a2.88,2.88,0,0,1,1.23.55,1.45,1.45,0,0,1,.52,1.22,1.82,1.82,0,0,1-.29,1,2,2,0,0,1-.82.69,2.84,2.84,0,0,1-1.19.24A2.63,2.63,0,0,1,8.08,10.2Z"/><path class="cls-2" d="M13.89,10.07a2.69,2.69,0,0,1-1-1.17,4,4,0,0,1-.34-1.68,4,4,0,0,1,.34-1.68,2.69,2.69,0,0,1,1-1.19,2.83,2.83,0,0,1,1.59-.44A2.75,2.75,0,0,1,17,4.35a2.78,2.78,0,0,1,1,1.19,4.1,4.1,0,0,1,.34,1.68A4.13,4.13,0,0,1,18,8.9a2.78,2.78,0,0,1-1,1.17,2.82,2.82,0,0,1-1.56.43A2.9,2.9,0,0,1,13.89,10.07Zm2.85-1.22A2.71,2.71,0,0,0,17.2,7.2,3.24,3.24,0,0,0,17,6a2,2,0,0,0-.59-.83,1.61,1.61,0,0,0-1.87,0,2,2,0,0,0-.6.83,3.13,3.13,0,0,0-.21,1.17,3.09,3.09,0,0,0,.21,1.17,1.82,1.82,0,0,0,.59.81,1.5,1.5,0,0,0,1,.3A1.45,1.45,0,0,0,16.74,8.85Z"/><path class="cls-2" d="M20.55,10.07a2.76,2.76,0,0,1-1-1.17,4.13,4.13,0,0,1-.34-1.68,4.13,4.13,0,0,1,.34-1.68,2.71,2.71,0,0,1,1-1.19,2.82,2.82,0,0,1,1.58-.44,2.78,2.78,0,0,1,1.57.44,2.69,2.69,0,0,1,1,1.19A3.94,3.94,0,0,1,25,7.22,4,4,0,0,1,24.7,8.9a2.69,2.69,0,0,1-1,1.17,2.86,2.86,0,0,1-1.57.43A2.9,2.9,0,0,1,20.55,10.07Zm2.86-1.22a2.78,2.78,0,0,0,.45-1.65A3,3,0,0,0,23.66,6a1.88,1.88,0,0,0-.59-.83,1.46,1.46,0,0,0-.93-.3,1.51,1.51,0,0,0-.94.3,2,2,0,0,0-.6.83,3.34,3.34,0,0,0-.2,1.17,3.3,3.3,0,0,0,.2,1.17,1.82,1.82,0,0,0,.59.81,1.52,1.52,0,0,0,.95.3A1.47,1.47,0,0,0,23.41,8.85Z"/><path class="cls-2" d="M26,4h1.28L30.19,8.7h0V4h1.09v6.39H30L27.17,5.87h0v4.56H26Z"/></g></g></svg>