<svg xmlns="http://www.w3.org/2000/svg" viewBox="0 0 160.57 50"><defs><style>.cls-1{fill:#00ab58;}.cls-2{fill:#fff;}</style></defs><g id="Camada_2" data-name="Camada 2"><g id="Lista_Casinos" data-name="Lista Casinos"><rect class="cls-1" width="160.57" height="50" rx="9"/><path class="cls-2" d="M53.72,29.74a4.66,4.66,0,0,1-1.66-2,7,7,0,0,1,0-5.53,4.66,4.66,0,0,1,1.66-2,4.6,4.6,0,0,1,2.59-.72,4.43,4.43,0,0,1,3,1,4.92,4.92,0,0,1,1.54,2.76H59.09a3,3,0,0,0-1-1.58,2.63,2.63,0,0,0-1.77-.62,2.48,2.48,0,0,0-2.18,1.06A4.7,4.7,0,0,0,53.41,25a4.77,4.77,0,0,0,.75,2.81,2.51,2.51,0,0,0,2.18,1.06,2.61,2.61,0,0,0,1.7-.57,3,3,0,0,0,1-1.45H60.8a4.82,4.82,0,0,1-1.55,2.64,4.35,4.35,0,0,1-2.94,1A4.53,4.53,0,0,1,53.72,29.74Z"/><path class="cls-2" d="M69,28.73v1.62H62.42l0-10.61h1.85v9Z"/><path class="cls-2" d="M76.6,27.58H72.73l-.94,2.77H69.92l3.89-10.61h1.73l3.88,10.61H77.55Zm-.49-1.43L74.69,22h-.08l-1.4,4.12Z"/><path class="cls-2" d="M80.83,19.74h1.85V30.35H80.83Z"/><path class="cls-2" d="M84.8,19.74h2.73l2.6,7.06h.05l2.62-7.06h2.73V30.35h-1.8V22.41h-.08l-2.88,7.94H89.56l-2.88-7.94H86.6v7.94H84.8Z"/><path class="cls-2" d="M102.86,29.76a4.47,4.47,0,0,1-1.66-2,6.7,6.7,0,0,1-.56-2.78,6.86,6.86,0,0,1,.56-2.8,4.45,4.45,0,0,1,4.29-2.7,4.6,4.6,0,0,1,2.61.72,4.66,4.66,0,0,1,1.66,2,7.23,7.23,0,0,1,0,5.58,4.47,4.47,0,0,1-1.66,2,5.19,5.19,0,0,1-5.24,0Zm4.74-2a4.56,4.56,0,0,0,.76-2.74,5.41,5.41,0,0,0-.33-1.94,3.18,3.18,0,0,0-1-1.37,2.44,2.44,0,0,0-1.56-.51,2.48,2.48,0,0,0-1.56.51,3.23,3.23,0,0,0-1,1.38A5.25,5.25,0,0,0,102.6,25a5.35,5.35,0,0,0,.33,1.93,3.07,3.07,0,0,0,1,1.36,2.52,2.52,0,0,0,1.57.5A2.44,2.44,0,0,0,107.6,27.74Z"/><path class="cls-2" d="M113.85,21.36v2.87h4.2v1.44h-4.2v4.68H112V19.74h6.61v1.62Z"/><path class="cls-2" d="M121.63,21.36v2.87h4.2v1.44h-4.2v4.68h-1.85V19.74h6.61v1.62Z"/><path class="cls-2" d="M129.39,21.36v2.87h4.32v1.45h-4.32v3.05h5v1.62h-6.86V19.74h6.86v1.62Z"/><path class="cls-2" d="M139.55,26.38H138v4h-1.84V19.74H140a4.24,4.24,0,0,1,2.12.48,2.93,2.93,0,0,1,1.25,1.24,3.43,3.43,0,0,1,.41,1.63,3.33,3.33,0,0,1-.59,1.92,3.1,3.1,0,0,1-1.78,1.19l2.52,4.15H142ZM138,24.86h1.71a2.92,2.92,0,0,0,1.61-.41,1.48,1.48,0,0,0,.65-1.36,1.43,1.43,0,0,0-.65-1.34,3.07,3.07,0,0,0-1.61-.39H138Z"/><path class="cls-2" d="M33.84,27.88a.26.26,0,0,1,0,.24.25.25,0,0,1-.22.12H32.22a3.23,3.23,0,0,1-2.29-.95A3.2,3.2,0,0,1,29.15,26a.27.27,0,0,1,0-.23.24.24,0,0,1,.2-.11h6.22a.27.27,0,0,1,.18.08l0,0a.28.28,0,0,1,0,.25l-.27.59,4-1.62-4-1.62.28.6a.26.26,0,0,1,0,.24.27.27,0,0,1-.21.12H29.4a.23.23,0,0,1-.18-.08l0,0a.26.26,0,0,1,0-.23,3.23,3.23,0,0,1,3.07-2.24H33.6a.32.32,0,0,1,.19.07l0,.05a.26.26,0,0,1,0,.24l-.28.6,4-1.62-4-1.62.28.59a.28.28,0,0,1,0,.25.27.27,0,0,1-.22.11H32.22a4.58,4.58,0,0,0-4.48,3.7.26.26,0,0,1-.25.21H17.33a.66.66,0,0,0-.46.19.65.65,0,0,0,0,.94.66.66,0,0,0,.46.19H27.49a.25.25,0,0,1,.18.08.21.21,0,0,1,.07.13,4.56,4.56,0,0,0,4.48,3.7H33.6a.26.26,0,0,1,.19.07l0,0a.28.28,0,0,1,0,.25l-.28.59,4-1.62-4-1.62Z"/></g></g></svg>