<svg xmlns="http://www.w3.org/2000/svg" viewBox="0 0 160.57 50"><defs><style>.cls-1{fill:#00ab58;}.cls-2{fill:#fff;}</style></defs><g id="Camada_2" data-name="Camada 2"><g id="Lista_Casinos" data-name="Lista Casinos"><rect class="cls-1" width="160.57" height="50" rx="9"/><path class="cls-2" d="M19.25,29.91a4.66,4.66,0,0,1-1.66-2,7,7,0,0,1,0-5.54,4.7,4.7,0,0,1,1.66-2,4.6,4.6,0,0,1,2.59-.72,4.38,4.38,0,0,1,3,1A4.92,4.92,0,0,1,26.4,23.5H24.61a2.89,2.89,0,0,0-1-1.58,2.63,2.63,0,0,0-1.77-.62,2.48,2.48,0,0,0-2.18,1.06,4.7,4.7,0,0,0-.75,2.79A4.77,4.77,0,0,0,19.69,28,2.5,2.5,0,0,0,21.87,29a2.61,2.61,0,0,0,1.7-.57,3,3,0,0,0,1-1.45h1.79a4.82,4.82,0,0,1-1.55,2.63,4.31,4.31,0,0,1-2.94,1A4.53,4.53,0,0,1,19.25,29.91Z"/><path class="cls-2" d="M34.5,28.9v1.62H28l0-10.61h1.85v9Z"/><path class="cls-2" d="M42.13,27.75H38.26l-.94,2.77H35.45l3.89-10.61h1.73L45,30.52H43.08Zm-.49-1.43L40.22,22.2h-.08l-1.4,4.12Z"/><path class="cls-2" d="M46.36,19.91h1.85V30.52H46.36Z"/><path class="cls-2" d="M50.33,19.91h2.73L55.66,27h.05l2.62-7.06h2.73V30.52h-1.8V22.58h-.08L56.3,30.52H55.09l-2.88-7.94h-.08v7.94h-1.8Z"/><path class="cls-2" d="M68.39,29.93A4.52,4.52,0,0,1,66.73,28a6.7,6.7,0,0,1-.56-2.78,6.86,6.86,0,0,1,.56-2.8,4.86,4.86,0,0,1,6.9-2,4.6,4.6,0,0,1,1.65,2,6.69,6.69,0,0,1,.57,2.81A6.55,6.55,0,0,1,75.28,28a4.44,4.44,0,0,1-1.65,1.95,5.19,5.19,0,0,1-5.24,0Zm4.74-2a4.56,4.56,0,0,0,.76-2.74,5.37,5.37,0,0,0-.33-1.94,3.12,3.12,0,0,0-1-1.37A2.44,2.44,0,0,0,71,21.35a2.48,2.48,0,0,0-1.56.51,3.12,3.12,0,0,0-1,1.38,5.23,5.23,0,0,0-.34,1.94,5.37,5.37,0,0,0,.33,1.94,3,3,0,0,0,1,1.35,2.66,2.66,0,0,0,3.68-.56Z"/><path class="cls-2" d="M79.38,21.53V24.4h4.2v1.44h-4.2v4.68H77.53V19.91h6.61v1.62Z"/><path class="cls-2" d="M87.16,21.53V24.4h4.2v1.44h-4.2v4.68H85.31V19.91h6.61v1.62Z"/><path class="cls-2" d="M94.92,21.53V24.4h4.32v1.45H94.92v3h5v1.62H93.08V19.91h6.86v1.62Z"/><path class="cls-2" d="M105.08,26.55h-1.56v4h-1.84V19.91h3.82a4.24,4.24,0,0,1,2.12.48,2.93,2.93,0,0,1,1.25,1.24,3.43,3.43,0,0,1,.41,1.63,3.33,3.33,0,0,1-.59,1.92,3.15,3.15,0,0,1-1.78,1.19l2.52,4.15h-1.94ZM103.52,25h1.71a2.94,2.94,0,0,0,1.61-.41,1.48,1.48,0,0,0,.65-1.36,1.42,1.42,0,0,0-.65-1.34,3.07,3.07,0,0,0-1.61-.39h-1.71Z"/><path class="cls-2" d="M136.33,32.22a.62.62,0,0,1-.46-.19.65.65,0,0,1,0-.93L142,25l-6.1-6.1a.65.65,0,0,1,0-.93.64.64,0,0,1,.92,0l6.57,6.57a.65.65,0,0,1,0,.92L136.79,32A.62.62,0,0,1,136.33,32.22Z"/><path class="cls-2" d="M126.39,32.22a.62.62,0,0,1-.46-.19.65.65,0,0,1,0-.93L132,25l-6.1-6.1a.65.65,0,0,1,0-.93.64.64,0,0,1,.92,0l6.57,6.57a.66.66,0,0,1,0,.92L126.85,32A.62.62,0,0,1,126.39,32.22Z"/></g></g></svg>