<svg xmlns="http://www.w3.org/2000/svg" xmlns:xlink="http://www.w3.org/1999/xlink" viewBox="0 0 16.2 16.2"><defs><style>.cls-1{fill:url(#Gradiente_sem_nome_2);}.cls-2{fill:#00ab58;}</style><linearGradient id="Gradiente_sem_nome_2" x1="8.1" x2="8.1" y2="16.2" gradientUnits="userSpaceOnUse"><stop offset="0" stop-color="#04814a"/><stop offset="0.18" stop-color="#06653f"/><stop offset="0.58" stop-color="#0c1e22"/><stop offset="0.61" stop-color="#0c1920"/><stop offset="0.7" stop-color="#0c1c21"/><stop offset="0.76" stop-color="#0b2525"/><stop offset="0.82" stop-color="#0a352b"/><stop offset="0.87" stop-color="#084b33"/><stop offset="0.92" stop-color="#06673e"/><stop offset="0.96" stop-color="#038a4b"/><stop offset="1" stop-color="#00ab58"/></linearGradient></defs><g id="Camada_2" data-name="Camada 2"><g id="Rodapé"><circle class="cls-1" cx="8.1" cy="8.1" r="8.1"/><path class="cls-2" d="M8.1.58A7.52,7.52,0,1,0,15.62,8.1,7.52,7.52,0,0,0,8.1.58ZM10,.94a7.46,7.46,0,0,1,3.32,1.92L12,4.25a5.35,5.35,0,0,0-1.13-.86,5.14,5.14,0,0,0-1.31-.55ZM4.4,1.68A7.62,7.62,0,0,1,6.18.94l.51,1.9a5.14,5.14,0,0,0-1.31.55,5.35,5.35,0,0,0-1.13.86L2.86,2.86A7.57,7.57,0,0,1,4.4,1.68ZM.94,10a7.5,7.5,0,0,1,0-3.84l1.9.51a5.61,5.61,0,0,0,0,2.82Zm5.24,5.24a7.46,7.46,0,0,1-3.32-1.92L4.25,12a5.35,5.35,0,0,0,1.13.86,5.14,5.14,0,0,0,1.31.55ZM2.77,8.1A5.33,5.33,0,1,1,8.1,13.43,5.32,5.32,0,0,1,2.77,8.1Zm9,6.42a7.62,7.62,0,0,1-1.78.74l-.51-1.9a5.14,5.14,0,0,0,1.31-.55A5.35,5.35,0,0,0,12,12l1.39,1.39A7.57,7.57,0,0,1,11.8,14.52Zm1.56-5a5.61,5.61,0,0,0,0-2.82l1.9-.51a7.5,7.5,0,0,1,0,3.84Z"/><path class="cls-2" d="M6.7,11.69a2.64,2.64,0,0,1-1-.94,2.89,2.89,0,0,1-.39-1.54,3.92,3.92,0,0,1,.31-1.59,11.24,11.24,0,0,1,.85-1.56L7.62,4.2H9.28L7.14,7.44l0,0,.17-.15A1.84,1.84,0,0,1,7.89,7a1.68,1.68,0,0,1,.77-.14,2.26,2.26,0,0,1,1.23.33,2.19,2.19,0,0,1,.78.92,3,3,0,0,1,.27,1.28,2.63,2.63,0,0,1-.38,1.46,2.37,2.37,0,0,1-1,.9,3.48,3.48,0,0,1-2.85,0ZM9,10.25a1.46,1.46,0,0,0,.3-.91A1.49,1.49,0,0,0,9,8.42,1.07,1.07,0,0,0,8.07,8a1,1,0,0,0-.88.39,1.51,1.51,0,0,0,0,1.83,1,1,0,0,0,.88.4A1.08,1.08,0,0,0,9,10.25Z"/></g></g></svg>