<svg xmlns="http://www.w3.org/2000/svg" viewBox="0 0 24.06 30.13"><defs><style>.cls-1{fill:#00ab58;}</style></defs><g id="Camada_2" data-name="Camada 2"><g id="Casinos_Principais" data-name="Casinos Principais"><path class="cls-1" d="M12,12.13c-.69,0-1.19.29-1.19.72v5.89c0,.37.5.74,1.19.74s1.21-.37,1.21-.74V12.85C13.24,12.42,12.7,12.13,12,12.13Z"/><path class="cls-1" d="M12,8.49a1.2,1.2,0,0,0-1.27,1.1A1.22,1.22,0,0,0,12,10.71a1.2,1.2,0,0,0,1.25-1.12A1.19,1.19,0,0,0,12,8.49Z"/><path class="cls-1" d="M21.49,6.74c.13-.18.24-.4.34-.56a7.62,7.62,0,0,0,.65-3.47A6.43,6.43,0,0,0,22.17.44c-.25-.59-.28-.71-1,.4a28.47,28.47,0,0,1-2,2.65c-.15.22-.37.43-.48.64a12,12,0,0,0-13.62.24,4.35,4.35,0,0,0-.54-.88,30.47,30.47,0,0,1-2-2.65c-.71-1.11-.74-1-1-.4a6.42,6.42,0,0,0-.3,2.27,7.36,7.36,0,0,0,.65,3.47,2.08,2.08,0,0,0,.59.75,12,12,0,0,0,6,18.69l2.74,4a1.08,1.08,0,0,0,.9.48,1.12,1.12,0,0,0,.91-.48l2.73-4A12,12,0,0,0,21.49,6.74Zm-6.8,16.89a1.08,1.08,0,0,0-.61.44l-2.05,3-2-3a1,1,0,0,0-.61-.44,9.85,9.85,0,1,1,5.32,0Z"/></g></g></svg>