<svg xmlns="http://www.w3.org/2000/svg" viewBox="0 0 18 18"><defs><style>.cls-1{fill:#fff;}</style></defs><g id="Camada_2" data-name="Camada 2"><g id="Exportação"><path class="cls-1" d="M12.38,0H5.63A5.63,5.63,0,0,0,0,5.63v6.75A5.63,5.63,0,0,0,5.63,18h6.75A5.62,5.62,0,0,0,18,12.38V5.63A5.63,5.63,0,0,0,12.38,0Zm3.93,12.38a3.93,3.93,0,0,1-3.93,3.93H5.63a3.93,3.93,0,0,1-3.94-3.93V5.63A3.93,3.93,0,0,1,5.63,1.69h6.75a3.93,3.93,0,0,1,3.93,3.94Z"/><path class="cls-1" d="M9,4.5A4.5,4.5,0,1,0,13.5,9,4.49,4.49,0,0,0,9,4.5Zm0,7.31A2.81,2.81,0,1,1,11.81,9,2.81,2.81,0,0,1,9,11.81Z"/><circle class="cls-1" cx="13.84" cy="4.16" r="0.6"/></g></g></svg>