<svg xmlns="http://www.w3.org/2000/svg" viewBox="0 0 161.07 39.95"><defs><style>.cls-1{fill:#00ab58;}</style></defs><g id="Camada_2" data-name="Camada 2"><g id="Lista_Casinos" data-name="Lista Casinos"><path class="cls-1" d="M152.83,40H8.24A8.25,8.25,0,0,1,0,31.71V8.24A8.25,8.25,0,0,1,8.24,0H152.83a8.25,8.25,0,0,1,8.24,8.24V31.71A8.25,8.25,0,0,1,152.83,40ZM8.24.5A7.75,7.75,0,0,0,.5,8.24V31.71a7.75,7.75,0,0,0,7.74,7.74H152.83a7.75,7.75,0,0,0,7.74-7.74V8.24A7.75,7.75,0,0,0,152.83.5Z"/><path class="cls-1" d="M39.48,14.71h1.84l2.86,8.69h.1l2.85-8.69H49L45.43,25.34H43Z"/><path class="cls-1" d="M50.45,14.71H52.3V25.33H50.45Z"/><path class="cls-1" d="M56.27,16.34V19.2h4.32v1.46H56.27v3.05h5v1.62H54.43V14.71h6.86v1.63Z"/><path class="cls-1" d="M62.26,14.71h1.85l2,8.27h.09l2.61-8.27h1.62L73,23h.09l2-8.27H77L74.21,25.34H72L69.66,18h-.09l-2.28,7.35H65Z"/><path class="cls-1" d="M81.6,14.71h2.73l2.61,7.07h0l2.62-7.07h2.73V25.33H90.53V17.38h-.07l-2.88,8H86.36l-2.88-7.95h-.07v8H81.6Z"/><path class="cls-1" d="M96.17,24.74a4.56,4.56,0,0,1-1.65-1.95A6.73,6.73,0,0,1,94,20a6.83,6.83,0,0,1,.56-2.8,4.59,4.59,0,0,1,1.66-2,5.07,5.07,0,0,1,5.24,0,4.55,4.55,0,0,1,1.65,2,6.68,6.68,0,0,1,.56,2.81,6.58,6.58,0,0,1-.56,2.78,4.49,4.49,0,0,1-1.65,1.95,4.72,4.72,0,0,1-2.61.71A4.77,4.77,0,0,1,96.17,24.74Zm4.75-2a4.65,4.65,0,0,0,.76-2.74,5.16,5.16,0,0,0-.34-1.94,3.12,3.12,0,0,0-1-1.38,2.68,2.68,0,0,0-3.12,0,3.15,3.15,0,0,0-1,1.38A5.25,5.25,0,0,0,95.92,20a5.31,5.31,0,0,0,.33,1.93,3,3,0,0,0,1,1.36,2.52,2.52,0,0,0,1.57.5A2.45,2.45,0,0,0,100.92,22.72Z"/><path class="cls-1" d="M108.7,21.36h-1.56v4H105.3V14.71h3.82a4.24,4.24,0,0,1,2.12.48,3.09,3.09,0,0,1,1.26,1.25,3.54,3.54,0,0,1,.4,1.63,3.32,3.32,0,0,1-.59,1.91,3.1,3.1,0,0,1-1.78,1.19l2.52,4.16h-1.94Zm-1.56-1.52h1.71a3,3,0,0,0,1.61-.41,1.49,1.49,0,0,0,.65-1.36,1.45,1.45,0,0,0-.65-1.35,3.14,3.14,0,0,0-1.61-.38h-1.71Z"/><path class="cls-1" d="M116.57,16.34V19.2h4.32v1.46h-4.32v3.05h5v1.62h-6.85V14.71h6.85v1.63Z"/></g></g></svg>