<svg xmlns="http://www.w3.org/2000/svg" viewBox="0 0 159.82 27.91"><defs><style>.cls-1{fill:#fff;fill-rule:evenodd;}</style></defs><g id="Camada_2" data-name="Camada 2"><g id="Rodapé"><path class="cls-1" d="M27.32,16.85V10.09h6.93v1.15H28.9v1.51H32V13.9H28.9v1.68h5.41v1.27Zm132.5-5.24A2,2,0,0,1,156.47,13a1.89,1.89,0,0,1-.58-1.39,2,2,0,0,1,2-2,2,2,0,0,1,2,2Zm-.43,0a1.48,1.48,0,0,0-.45-1.09,1.5,1.5,0,0,0-2.16,0,1.48,1.48,0,0,0-.45,1.09,1.51,1.51,0,0,0,.45,1.09,1.52,1.52,0,0,0,2.16,0,1.51,1.51,0,0,0,.45-1.09Zm-.43.93-.74-.85a.81.81,0,0,0,.32-.21.51.51,0,0,0,.12-.35.54.54,0,0,0-.06-.27.59.59,0,0,0-.2-.18.73.73,0,0,0-.25-.08l-.33,0h-.74v2h.48v-.72h.19l.6.72Zm-.84-1.38a.43.43,0,0,0,0-.11A.24.24,0,0,0,158,11a.28.28,0,0,0-.13,0h-.32v.55h.32l.14-.06a.25.25,0,0,0,.08-.1.52.52,0,0,0,0-.14ZM36.59,12.62a1.41,1.41,0,0,1,.29-1A1.69,1.69,0,0,1,38,11.31h4.29a1.67,1.67,0,0,1,1.15.28,1.41,1.41,0,0,1,.29,1v2.91a1.38,1.38,0,0,1-.3,1,1.74,1.74,0,0,1-1.14.29h-.66l.73,1.41H41.06l-.63-1.41H38a1.69,1.69,0,0,1-1.14-.28,1.39,1.39,0,0,1-.3-1V12.62Zm1.35,3.17h2l-.58-1.19,1-.37.77,1.56h1.28V12.33H37.94v3.46Zm9.49-4.48v4.5h3.86v-4.5h1.37v4.23a1.33,1.33,0,0,1-.31,1,1.7,1.7,0,0,1-1.15.28H47.53a1.76,1.76,0,0,1-1.14-.27,1.4,1.4,0,0,1-.3-1V11.31Zm7.69,5.54V11.31h1.34v5.54Zm3.81,0V11.31h5a1.59,1.59,0,0,1,1,.25,1,1,0,0,1,.31.83v1.22a1,1,0,0,1-.31.83,1.63,1.63,0,0,1-1,.25H60.27v2.16Zm4.42-4.59H60.27v1.47h3.08a.78.78,0,0,0,.48-.1.4.4,0,0,0,.14-.34v-.58a.4.4,0,0,0-.14-.34.76.76,0,0,0-.48-.11Zm3.82,4.59V11.31h5.94v1H68.53V13.5H71.2v.95H68.53v1.36h4.65v1Zm10-1.27h2a3.93,3.93,0,0,0,2.3-.51,1.94,1.94,0,0,0,.68-1.67,2.06,2.06,0,0,0-.57-1.57A2.35,2.35,0,0,0,80,11.3H77.2v4.28Zm-1.58,1.27V10.09H80a4.23,4.23,0,0,1,2.86.87,3.08,3.08,0,0,1,1,2.47,3.64,3.64,0,0,1-.39,1.7,3,3,0,0,1-1.1,1.2,3.37,3.37,0,0,1-1.1.4,9.51,9.51,0,0,1-1.68.12Zm10.61,0V11.31h1.35v5.54Zm9.25-4.52H91.26v3.46h4.22V14.61h-2.2v-1h3.53v1.91a1.4,1.4,0,0,1-.3,1,1.76,1.76,0,0,1-1.14.27h-4a1.76,1.76,0,0,1-1.14-.27,1.4,1.4,0,0,1-.3-1V12.62a1.36,1.36,0,0,1,.3-1,1.69,1.69,0,0,1,1.14-.28h4a1.7,1.7,0,0,1,1.13.27,1.23,1.23,0,0,1,.31,1v.15l-1.33.22v-.59Zm3.63,4.52V11.31h1.35v5.54Zm7.12-4.55v4.55h-1.35V12.3H102.2v-1h6.71v1Zm2.63,4.55h1.35l.7-1.22h3.66l.7,1.22h1.52l-3.34-5.54h-1.3l-3.29,5.54Zm2.62-2.23,1.25-2.31L114,14.62Zm6.69,2.23V11.31h1.36v4.5h4.35v1Zm8.63-2H127a.27.27,0,0,1,.24.1.71.71,0,0,1,.07.38v1.06a.7.7,0,0,1-.07.4q-.07.09-.48.09h-1.17a.27.27,0,0,1-.24-.1.73.73,0,0,1-.07-.39V15.3a.66.66,0,0,1,.08-.39c0-.06.2-.09.47-.09Zm7.8-2.49H131v3.46h3.64V14.61l1.36.28v.65a1.38,1.38,0,0,1-.3,1,1.7,1.7,0,0,1-1.15.28h-3.46a1.76,1.76,0,0,1-1.14-.27,1.4,1.4,0,0,1-.3-1V12.62a1.36,1.36,0,0,1,.29-1,1.7,1.7,0,0,1,1.15-.28h3.46a1.7,1.7,0,0,1,1.15.28,1.36,1.36,0,0,1,.3,1v.53l-1.36.2v-1Zm4.8,3.46h4.46V12.33H139.4v3.46Zm-1.35-3.17a1.36,1.36,0,0,1,.29-1,1.7,1.7,0,0,1,1.15-.28h4.28a1.67,1.67,0,0,1,1.15.28,1.36,1.36,0,0,1,.29,1v2.92a1.45,1.45,0,0,1-.29,1,1.77,1.77,0,0,1-1.15.27h-4.28a1.77,1.77,0,0,1-1.15-.27,1.41,1.41,0,0,1-.29-1V12.62Zm9.5,4.23V11.31h1.08l2.71,3.29,2.7-3.29h1.09v5.54h-1.25V13l-2.48,3.15h-.26l-2.51-3.06v3.72Z"/><path class="cls-1" d="M14.9,11.46l6.92,7-6.92,7v-14ZM11.56,5.55,9.47,3.46,3.93,9l7.63,7.64v6.47L0,11.55,11.56,0V5.55Zm2.26,22.36L25.38,16.35,13.82,4.8V27.91ZM11.56,12.7V7.16L8.79,9.93Z"/></g></g></svg>