<svg xmlns="http://www.w3.org/2000/svg" width="180" height="78" viewBox="0 0 180 78"><defs><linearGradient id="takma" x1="26.51" x2="196.04" y1="80.77" y2="25.08" gradientUnits="userSpaceOnUse"><stop offset="0" stop-color="#002a01"/><stop offset=".26" stop-color="#5c806e"/><stop offset=".41" stop-color="#249779"/><stop offset=".57" stop-color="#006c33"/><stop offset=".74" stop-color="#004030"/><stop offset="1" stop-color="#00340f"/></linearGradient><linearGradient id="takmb" x1="2.55" x2="176.96" y1="53.69" y2="53.69" gradientUnits="userSpaceOnUse"><stop offset="0" stop-color="#fdd600"/><stop offset=".52" stop-color="#fff9c7"/><stop offset="1" stop-color="#f7991c"/></linearGradient><linearGradient id="takmc" x1="22.48" x2="191.92" y1="68.58" y2="12.92" gradientUnits="userSpaceOnUse"><stop offset="0" stop-color="#002a01"/><stop offset=".2" stop-color="#3b8b6f"/><stop offset=".37" stop-color="#00736e"/><stop offset=".53" stop-color="#002518"/><stop offset=".69" stop-color="#2f6565"/><stop offset=".83" stop-color="#00340f"/><stop offset=".99" stop-color="#002b0b"/></linearGradient><linearGradient id="takmd" x1="51.63" x2="95.49" y1="15.15" y2="52.64" gradientUnits="userSpaceOnUse"><stop offset="0" stop-color="#fdd600"/><stop offset=".33" stop-color="#fff480"/><stop offset="1" stop-color="#f7991c"/></linearGradient><linearGradient id="takme" x1="67.89" x2="107.55" y1="2.81" y2="36.69" gradientUnits="userSpaceOnUse"><stop offset="0" stop-color="#fdd600"/><stop offset=".33" stop-color="#fff480"/><stop offset="1" stop-color="#f7991c"/></linearGradient><linearGradient id="takmf" x1="26.53" x2="196.06" y1="81.6" y2="25.9" gradientUnits="userSpaceOnUse"><stop offset="0" stop-color="#002a01"/><stop offset=".26" stop-color="#5c806e"/><stop offset=".41" stop-color="#249779"/><stop offset=".57" stop-color="#006c33"/><stop offset=".74" stop-color="#004030"/><stop offset="1" stop-color="#00340f"/></linearGradient><linearGradient id="takmg" x1="2.57" x2="176.98" y1="54.51" y2="54.51" gradientUnits="userSpaceOnUse"><stop offset="0" stop-color="#fdd600"/><stop offset=".52" stop-color="#fff9c7"/><stop offset="1" stop-color="#f7991c"/></linearGradient><linearGradient id="takmh" x1="22.49" x2="191.94" y1="69.41" y2="13.74" gradientUnits="userSpaceOnUse"><stop offset="0" stop-color="#002a01"/><stop offset=".2" stop-color="#3b8b6f"/><stop offset=".37" stop-color="#00736e"/><stop offset=".53" stop-color="#002518"/><stop offset=".69" stop-color="#2f6565"/><stop offset=".83" stop-color="#00340f"/><stop offset=".99" stop-color="#002b0b"/></linearGradient><linearGradient id="takmi" x1="51.65" x2="95.5" y1="15.98" y2="53.47" gradientUnits="userSpaceOnUse"><stop offset="0" stop-color="#fdd600"/><stop offset=".33" stop-color="#fff480"/><stop offset="1" stop-color="#f7991c"/></linearGradient><linearGradient id="takmj" x1="67.91" x2="107.57" y1="3.64" y2="37.51" gradientUnits="userSpaceOnUse"><stop offset="0" stop-color="#fdd600"/><stop offset=".33" stop-color="#fff480"/><stop offset="1" stop-color="#f7991c"/></linearGradient></defs><g><g><g><g><path fill="url(#takma)" d="M176.63 77.197H2.916C1.43 77.083.23 75.883.23 74.397V45.483c0-1.486 1.2-2.686 2.686-2.686l51.314-.057 8.629-13.029 3.2 8.743 48-.171 2.8-8.743 8.971 13.257 50.914.057c1.486-.057 2.686 1.143 2.743 2.629v28.914c-.171 1.486-1.371 2.686-2.857 2.8z"/></g><g><path fill="url(#takmb)" d="M174.284 74.91H5.2c-1.486-.114-2.629-1.314-2.629-2.743V47.71c0-1.486 1.2-2.571 2.686-2.571H55.94l8.4-12.572 4.4 9.714 43.086-.742 3.657-9.029 8.4 12.629 50.457-.115c1.486 0 2.686 1.2 2.686 2.686v24.457c-.057 1.429-1.257 2.629-2.743 2.743z"/></g><g><path fill="#2e3181" d="M116.57 22.004l1.257.343"/><path fill="none" stroke="#2d3380" stroke-miterlimit="20" stroke-width=".57" d="M116.57 22.004l1.257.343"/></g><g><path fill="#eaa02a" d="M112.29 43.71l2.857 4.857h3.657l-3.943-5.428 2.458-7.829-1.543-2.4z"/></g><g><path fill="#eaa02a" d="M68.23 44.004l-3.771 4.857-3.829.115 4.343-5.829-2.686-7.6 1.657-2.457z"/></g><g><path fill="url(#takmc)" d="M169.484 48.57h-53.428l-3.429-5.086L123.6 6.456l-3.315.685c-.114 0-8.571 1.543-10.285 9.772-1.886-.229-4.8-.057-6.915 2.286-1.143-3.429-3.828-4.629-5.714-5.086C98.341 5.14 91.141.856 91.084.856l-1.2-.686-1.2.686c-.057.057-7.2 4.4-6.285 13.257-1.829.4-4.572 1.657-5.715 5.086-2.114-2.343-5.028-2.515-6.914-2.286C68.056 8.74 59.599 7.14 59.484 7.14l-4.171-.514 11.886 36.857-3.6 5.086H9.884c-2.171 0-3.714 1.486-3.714 3.657V68c0 2.171 1.771 3.2 3.943 3.2h159.314a3.95 3.95 0 0 0 3.943-3.943V52.513c.057-2.172-1.714-3.943-3.886-3.943z"/></g><g><g><path fill="#fff" d="M17.316 61.719h4.743v3.142h-4.743zm0-6.286h4.743v3.153h-4.743zM26.8 66.519h1.6v-4.743h-1.6v-3.143h1.6V53.89h-1.6v-1.6H11.03v15.771h15.771z"/></g><g><path fill="#fff" d="M31.54 52.23h15.771v3.143H42.57v9.486h4.742V68H31.54V64.86h4.743V55.43H31.54z"/></g><g><path fill="#fff" d="M61.489 68.061h-6.286V55.433H50.46V52.29h15.771v3.143H61.49z"/></g><g><path fill="#fff" d="M75.716 68.059H69.43V52.287h6.286v4.743h1.6v-1.6h1.6v-1.6h1.6v-1.6H88.4v3.143h-1.6v1.6h-1.657v1.6h-1.6v3.143h1.6v1.6h1.6v1.6h1.6v3.143H80.46v-1.6h-1.6v-1.6h-1.6v-1.6h-1.6v4.8z"/></g><g><path fill="#fff" d="M91.49 52.23h15.771v3.143h-4.742v9.486h4.742V68H91.49V64.86h4.743V55.43H91.49z"/></g><g><path fill="#fff" d="M116.686 68.061H110.4V52.29h6.286v1.6h1.6v1.6h1.6v1.6h1.6v-4.743h6.285V68.12h-6.285v-4.743h-1.6v-1.657h-1.6v-1.6h-1.6z"/></g><g><path fill="#fff" d="M146.681 68.059H132.51v-1.6h-1.6V53.83h1.6v-1.6h15.771v3.143h-11.028v9.486h4.743v-3.143h-3.143v-3.143h7.886v1.6h1.6v6.286h-1.6v1.6z"/></g><g><path fill="#fff" d="M151.43 52.23h17.371v4.743h-1.6v1.6h-1.6v1.6h-1.6v1.6h-1.6v1.6h-1.6v1.6h7.886v3.143H151.43v-3.143h1.6v-1.6h1.6v-1.657h1.6v-1.6h1.6v-1.6h1.6v-1.6h1.6V55.43h-9.6z"/></g></g><g><g><g><path fill="url(#takmd)" d="M69.141 44.91l-2.571 3.657h46.514l-2.4-3.6s-9.657 2-21.2 2c-11.6 0-20.343-2.057-20.343-2.057z"/></g><g opacity=".37"><path fill="#fff" d="M69.141 44.91l-2.571 3.657h46.514s-22.343-.228-26.114-1.6c-8.686-.057-17.829-2.057-17.829-2.057z"/></g></g><g><path fill="url(#takme)" d="M115.767 20.456l1.314.228 3.6-11.257s-8.571 1.429-8.628 10.4c0 0-5.086-2.228-7.657 1.486-2.572 3.714 1.371 6.743 1.371 6.743s2.8-2.057 4-.115c1.2 1.943-4.171 4.572-9.086 3.772-4.514-.686-7.885-4.857-6.285-6.4 1.6-1.543 3.485 1.428 3.485 1.428s4.343-1.771 3.086-6.4c-1.257-4.628-6.343-4-6.343-4C97.081 7.2 89.881 2.97 89.881 2.97s-7.2 4.286-4.742 13.371c0 0-5.086-.628-6.343 4-1.257 4.629 3.085 6.4 3.085 6.4s1.886-3.028 3.486-1.428c1.6 1.543-1.714 5.714-6.286 6.4-4.857.743-10.285-1.886-9.085-3.772 1.2-1.942 4 .115 4 .115s3.943-3.029 1.371-6.743c-2.571-3.714-7.657-1.486-7.657-1.486-.057-8.971-9.2-10.571-9.2-10.571l3.829 11.485 1.371-.285.229 1.028-1.258.229.229.628L64.624 22l.229 1.028-1.543.286.229.628 2.285-.457.229 1.029-2.172.457 5.543 17.543s8.172 2.343 19.715 2.343c11.542 0 21.371-2.4 21.371-2.4l5.2-17.429-2.057-.4.171-1.028 2.229.4.228-.629-1.6-.286.172-1.028 1.771.343.229-.686-1.2-.229z"/></g><g><g><g><path fill="#1e4923" d="M90.289 47.543c4.986 0 9.028-4.017 9.028-8.972 0-4.954-4.042-8.971-9.028-8.971-4.987 0-9.029 4.017-9.029 8.971 0 4.955 4.042 8.972 9.029 8.972z"/></g><g><path fill="#ffcc05" d="M89.773 47.256a9.143 9.143 0 1 0 0-18.286 9.143 9.143 0 0 0 0 18.286z"/></g><g><path fill="#fbdb58" d="M96.804 32.227a9.025 9.025 0 0 0-6.971-3.257c-5.029 0-9.143 4.114-9.143 9.143 0 1.086.171 2.057.514 3.028 5.143-3.028 10.343-6 15.6-8.914z"/></g><g><path fill="#fbdb58" d="M90.86 47.199c2.114-.229 4-1.2 5.371-2.629l-4.285 2.057c-.343.229-.743.4-1.086.572z"/></g><g><path fill="#1e4923" d="M89.661 44.973a6.971 6.971 0 1 0 0-13.943 6.971 6.971 0 0 0 0 13.943z"/></g><g><path fill="#eda420" d="M89.947 45.144a6.857 6.857 0 1 0 0-13.714 6.857 6.857 0 0 0 0 13.714z"/></g><g><path fill="#f9fae6" d="M81.371 30.46l.229.4.343.171-.343.229-.229.343-.171-.343-.4-.229.4-.171z"/></g><g><path fill="#f9fae6" d="M95.433 29.31l.4.743.686.4-.686.4-.4.743-.4-.743-.743-.4.743-.4z"/></g><g><path fill="#f9fae6" d="M100.404 38.46l.172.343.4.171-.4.229-.172.343-.171-.343-.343-.229.343-.171z"/></g><g><path fill="#f9fae6" d="M100.396 34.516l.057.114.114.057-.114.057-.057.172-.058-.172-.114-.057.114-.057z"/></g><g><path fill="#1e4923" d="M90.962 36.002c.512.114.74.456.682.913 0 .4-.284.628-.625.742-.512.171-1.024.114-1.593.114v-1.94c.569 0 1.08-.058 1.536.17zm-1.536 2.74c.685 0 1.428-.057 2.114.23.457.229.686.63.571 1.089-.057.401-.342.573-.685.688-.629.23-1.315.172-2 .172v-2.18zm-2.286-2.91c.286 0 .457.172.457.515v4.172c0 .342-.114.457-.457.457h-.629c-.057.4-.114.743-.171 1.143h1.943v1.6h.971v-1.6h.8v1.6h.972v-1.6c.457-.115.914-.115 1.314-.229.629-.171 1.143-.457 1.429-1.086.171-.285.228-.685.228-1.028 0-.915-.4-1.429-1.257-1.715 0 0-.057-.057-.114-.057.057 0 .114-.057.114-.057 1.029-.571.914-2.171.171-2.686a2.833 2.833 0 0 0-1.142-.457c-.229-.057-.4-.057-.629-.114v-1.6h-.971v1.543h-.8V33.09h-.972v1.6h-1.943v1.029c.286 0 .572 0 .686.114z"/></g><g><path fill="#ffd31c" d="M90.683 35.774c.513.115.741.457.684.915 0 .4-.285.628-.627.742-.514.172-1.028.115-1.598.115v-1.943c.57-.057 1.084-.057 1.54.171zm-1.598 2.686c.687 0 1.432-.057 2.119.229.458.228.687.628.573 1.085-.058.4-.344.572-.688.686-.63.229-1.317.171-2.004.171V38.46zm-2.225-2.857c.286 0 .457.171.457.514v4.172c0 .342-.114.457-.457.457h-.629c-.057.4-.114.743-.171 1.143h1.943v1.6h.971v-1.6h.8v1.6h.972v-1.6c.457-.115.914-.115 1.314-.229.629-.171 1.143-.457 1.429-1.086.171-.285.228-.685.228-1.028 0-.915-.4-1.429-1.257-1.715 0 0-.057-.057-.114-.057.057 0 .114-.057.114-.057 1.029-.571.914-2.171.171-2.686a2.833 2.833 0 0 0-1.142-.457c-.229-.057-.4-.057-.629-.114v-1.6h-.971v1.543h-.8V32.86h-.972v1.6h-1.943v1.029c.286 0 .515 0 .686.114z"/></g><g><path fill="#f9fae6" d="M92.97 34.51l.286.514.514.286-.514.286-.286.571-.286-.571-.514-.286.514-.286z"/></g><g><path fill="#f9fae6" d="M86.461 41.14l.172.4.4.171-.4.229-.172.4-.228-.4-.343-.229.343-.171z"/></g><g><path fill="#f9fae6" d="M78.516 38.576l.057.114.114.057-.114.057-.057.172-.057-.172-.115-.057.115-.057z"/></g></g><g><path fill="#f9fae6" d="M89.831 17.77l1.029 1.886 1.886 1.028-1.886 1.086-1.029 1.886-1.085-1.886-1.886-1.086 1.886-1.028z"/></g></g></g></g><g><g><path fill="url(#takmf)" d="M176.63 77.997H2.916C1.43 77.883.23 76.683.23 75.197V46.283c0-1.486 1.2-2.686 2.686-2.686l51.314-.057 8.629-13.029 3.2 8.743 48-.171 2.8-8.743 8.971 13.257 50.914.057c1.486-.057 2.686 1.143 2.743 2.629v28.914c-.171 1.543-1.371 2.686-2.857 2.8z"/></g><g><path fill="url(#takmg)" d="M174.284 75.71H5.2c-1.486-.114-2.629-1.314-2.629-2.743V48.51c0-1.486 1.2-2.571 2.686-2.571H55.94l8.4-12.572 4.4 9.714 43.086-.742 3.657-9.029 8.4 12.629 50.457-.115c1.486 0 2.686 1.2 2.686 2.686v24.457c-.057 1.486-1.257 2.629-2.743 2.743z"/></g><g><path fill="#2e3181" d="M116.57 22.804l1.314.343"/><path fill="none" stroke="#2d3380" stroke-miterlimit="20" stroke-width=".57" d="M116.57 22.804l1.314.343"/></g><g><path fill="#eaa02a" d="M112.29 44.513l2.914 4.914h3.6l-3.943-5.486 2.458-7.771-1.486-2.4z"/></g><g><path fill="#eaa02a" d="M68.23 44.854l-3.771 4.857-3.829.058 4.343-5.829-2.686-7.543 1.657-2.457z"/></g><g><path fill="url(#takmh)" d="M169.484 49.37h-53.428l-3.429-5.086L123.6 7.256l-3.315.685c-.114 0-8.571 1.543-10.285 9.772-1.886-.229-4.8-.057-6.915 2.286-1.143-3.429-3.828-4.629-5.714-5.086.971-8.972-6.229-13.257-6.286-13.257l-1.2-.686-1.2.686c-.057.057-7.2 4.4-6.285 13.257-1.829.4-4.572 1.657-5.715 5.086-2.114-2.343-5.028-2.515-6.914-2.286C68.056 9.54 59.599 7.94 59.484 7.94l-4.171-.514 11.886 36.857-3.6 5.086H9.884c-2.171 0-3.714 1.486-3.714 3.657V68.8c0 2.171 1.771 3.2 3.943 3.2h159.314a3.95 3.95 0 0 0 3.943-3.943V53.313c.057-2.172-1.714-3.943-3.886-3.943z"/></g><g><g><path fill="#fff" d="M17.373 62.576h4.753v3.143h-4.753zm0-6.343h4.753v3.153h-4.753zM26.8 67.319h1.6v-4.743h-1.6v-3.143h1.6V54.69h-1.6v-1.6H11.03v15.771h15.771z"/></g><g><path fill="#fff" d="M31.54 53.09h15.771v3.143H42.57v9.486h4.742v3.142H31.54V65.72h4.743v-9.486H31.54z"/></g><g><path fill="#fff" d="M61.539 68.861h-6.286V56.233H50.51V53.09h15.771v3.143H61.54z"/></g><g><path fill="#fff" d="M75.716 68.859H69.43V53.087h6.286v4.743h1.6v-1.6h1.6v-1.6h1.6v-1.6H88.4v3.143h-1.6v1.6h-1.6v1.6h-1.6v3.143h1.6v1.6h1.6v1.6h1.6v3.143h-7.885v-1.6h-1.657v-1.543h-1.6v-1.6h-1.6v4.743z"/></g><g><path fill="#fff" d="M91.49 53.09h15.771v3.143h-4.742v9.486h4.742v3.142H91.49V65.72h4.743v-9.486H91.49z"/></g><g><path fill="#fff" d="M116.746 68.861h-6.286V53.09h6.286v1.6h1.6v1.6h1.6v1.6h1.6v-4.743h6.285V68.92h-6.285v-4.743h-1.6v-1.6h-1.657v-1.6h-1.6v7.885z"/></g><g><path fill="#fff" d="M146.681 68.859H132.51v-1.6h-1.6V54.63h1.6v-1.6h15.771v3.143h-11.028v9.543h4.743v-3.143h-3.143V59.43h7.886v1.6h1.6v6.286h-1.6v1.543z"/></g><g><path fill="#fff" d="M151.43 53.09h17.371v4.743h-1.6v1.6h-1.6v1.6h-1.6v1.6h-1.6v1.6h-1.6v1.6h7.886v3.143H151.43v-3.257h1.6v-1.6h1.6v-1.6h1.6v-1.6h1.6v-1.6h1.6v-1.6h1.6v-1.6h-9.6z"/></g></g><g><g><g><path fill="url(#takmi)" d="M69.141 45.77l-2.571 3.657h46.514l-2.4-3.6s-9.657 2-21.2 2-20.343-2.057-20.343-2.057z"/></g><g opacity=".37"><path fill="#fff" d="M69.141 45.77l-2.571 3.657h46.514s-22.343-.228-26.114-1.6c-8.686-.114-17.829-2.057-17.829-2.057z"/></g></g><g><path fill="url(#takmj)" d="M115.767 21.316l1.314.228 3.6-11.257s-8.571 1.429-8.628 10.4c0 0-5.086-2.228-7.657 1.486-2.572 3.714 1.371 6.743 1.371 6.743s2.8-2.057 4-.115c1.2 1.943-4.171 4.572-9.086 3.772-4.514-.686-7.885-4.857-6.285-6.4 1.6-1.543 3.485 1.428 3.485 1.428s4.343-1.771 3.086-6.4c-1.257-4.628-6.343-4-6.343-4C97.081 8.06 89.881 3.83 89.881 3.83s-7.2 4.286-4.742 13.371c0 0-5.086-.628-6.343 4-1.257 4.629 3.085 6.4 3.085 6.4s1.886-3.028 3.486-1.428c1.6 1.543-1.714 5.714-6.286 6.4-4.857.743-10.285-1.886-9.085-3.772 1.2-1.942 4 .115 4 .115s3.943-3.029 1.371-6.743c-2.571-3.714-7.657-1.486-7.657-1.486-.057-8.971-9.2-10.571-9.2-10.571L62.339 21.6l1.371-.285.229 1.028-1.258.229.229.628 1.714-.342.229 1.028-1.543.286.229.628 2.285-.457.229 1.029-2.172.457 5.543 17.543s8.172 2.343 19.715 2.343c11.542 0 21.371-2.4 21.371-2.4l5.2-17.429-2.057-.4.171-1.028 2.229.4.228-.629-1.6-.286.172-1.028 1.771.343.229-.686-1.2-.229z"/></g><g><g><g><path fill="#1e4923" d="M90.289 48.343c4.986 0 9.028-4.017 9.028-8.972 0-4.954-4.042-8.971-9.028-8.971-4.987 0-9.029 4.017-9.029 8.971 0 4.955 4.042 8.972 9.029 8.972z"/></g><g><path fill="#ffcc05" d="M89.833 48.116a9.143 9.143 0 1 0 0-18.286 9.143 9.143 0 0 0 0 18.286z"/></g><g><path fill="#fbdb58" d="M96.804 33.087a9.025 9.025 0 0 0-6.971-3.257c-5.029 0-9.143 4.114-9.143 9.143 0 1.086.171 2.057.514 3.028a421.771 421.771 0 0 1 15.6-8.914z"/></g><g><path fill="#fbdb58" d="M90.86 48.059c2.114-.229 4-1.2 5.371-2.629l-4.285 2.057c-.343.172-.686.343-1.086.572z"/></g><g><path fill="#1e4923" d="M89.661 45.773a6.971 6.971 0 1 0 0-13.943 6.971 6.971 0 0 0 0 13.943z"/></g><g><path fill="#eaa02a" d="M89.947 45.944a6.857 6.857 0 1 0 0-13.714 6.857 6.857 0 0 0 0 13.714z"/></g><g><path fill="#f9fae6" d="M81.429 31.26l.171.4.4.229-.4.171-.171.4-.229-.4-.4-.171.4-.229z"/></g><g><path fill="#f9fae6" d="M95.433 30.17l.4.743.743.343-.743.4-.4.743-.4-.743-.743-.4.743-.343z"/></g><g><path fill="#f9fae6" d="M100.404 39.26l.229.343.343.228-.343.172-.229.343-.171-.343-.343-.172.343-.228z"/></g><g><path fill="#f9fae6" d="M100.397 35.374l.114.115.115.057-.115.057-.114.114-.057-.114-.114-.057.114-.057z"/></g><g><path fill="#1e4923" d="M91.022 36.854c.512.115.74.457.682.915 0 .4-.284.628-.625.742-.512.172-1.024.115-1.593.115v-1.943c.512-.057 1.08-.057 1.536.171zm-1.593 2.686c.685 0 1.428-.057 2.114.229.457.228.686.628.571 1.085-.057.4-.343.572-.685.686-.629.229-1.315.171-2 .171V39.54zM87.2 36.683c.286 0 .457.171.457.514v4.172c0 .342-.114.457-.457.457h-.629c-.057.4-.114.743-.171 1.143h1.943v1.6h.971v-1.6h.8v1.6h.972v-1.6c.457-.115.914-.115 1.314-.229.629-.171 1.143-.457 1.429-1.086.171-.285.228-.685.228-1.028 0-.915-.4-1.429-1.257-1.715 0 0-.057-.057-.114-.057.057 0 .114-.057.114-.057 1.029-.571.914-2.171.171-2.686a2.833 2.833 0 0 0-1.142-.457c-.229-.057-.4-.057-.629-.114v-1.6h-.971v1.543h-.8V33.94h-.972v1.6h-1.943v1.029c.229 0 .515 0 .686.114z"/></g><g><path fill="#ffcc05" d="M90.683 36.573c.513.114.741.455.684.91 0 .398-.285.625-.627.74-.514.17-1.028.113-1.598.113v-1.933c.57 0 1.084-.057 1.54.17zm-1.541 2.744c.687 0 1.432-.057 2.119.229.458.228.687.628.573 1.085-.058.4-.344.572-.688.686-.63.229-1.317.172-2.004.172v-2.172zm-2.282-2.914c.286 0 .457.171.457.514v4.172c0 .342-.114.457-.457.457h-.629c-.057.4-.114.743-.171 1.143h1.943v1.6h.971v-1.6h.8v1.6h.972v-1.6c.457-.115.914-.115 1.314-.229.629-.171 1.143-.457 1.429-1.086.171-.285.228-.685.228-1.028 0-.915-.4-1.429-1.257-1.715 0 0-.057-.057-.114-.057.057 0 .114-.057.114-.057 1.029-.571.914-2.171.171-2.686a2.833 2.833 0 0 0-1.142-.457c-.229-.057-.4-.057-.629-.114v-1.6h-.971v1.543h-.8V33.66h-.972v1.6h-1.943v1.029c.286 0 .572 0 .686.114z"/></g><g><path fill="#f9fae6" d="M92.97 35.37l.286.514.571.286-.571.286-.286.514-.286-.514-.514-.286.514-.286z"/></g><g><path fill="#f9fae6" d="M86.461 42l.229.343.343.228-.343.172-.229.4-.228-.4-.343-.172.343-.228z"/></g><g><path fill="#f9fae6" d="M78.517 39.376l.057.171.172.057-.172.057-.057.115-.057-.115-.114-.057.114-.057z"/></g></g><g><path fill="#f9fae6" d="M89.831 18.57l1.029 1.943 1.943 1.028-1.943 1.029-1.029 1.943-1.028-1.943-1.943-1.029 1.943-1.028z"/></g></g></g></g></g></g></svg>