<svg xmlns="http://www.w3.org/2000/svg" viewBox="0 0 141.12 34.26"><defs><style>.cls-1{fill:#00ab58;}.cls-2{fill:#fff;}</style></defs><g id="Camada_2" data-name="Camada 2"><g id="Exportação"><path class="cls-1" d="M2.39.31c1.13,1.18,2.13,2.2,3.1,3.24.39.41.68.44,1.17.07a17.06,17.06,0,0,1,21,0c.44.33.74.37,1.12,0A38.48,38.48,0,0,1,32,.51c-.46,1.08-.86,2.2-1.41,3.24A13.32,13.32,0,0,1,25.67,9a.71.71,0,0,1-1-.06A11.1,11.1,0,0,0,9.71,8.88c-.28.25-.5.46-.93.2A14.54,14.54,0,0,1,2.39.31Z"/><path class="cls-1" d="M23.45,19.61c1.79-1,2.89-2.93,2.38-4.43A18.25,18.25,0,0,1,18.41,19C19.45,20.41,21.63,20.59,23.45,19.61Z"/><path class="cls-1" d="M10.72,19.55c1.81,1,4,.9,5.09-.37-1.34-.56-2.68-1-3.9-1.65S9.57,16,8.39,15.23C8,16.74,9,18.57,10.72,19.55Z"/><path class="cls-1" d="M6.59,20.75A11.23,11.23,0,0,1,6.78,13a1,1,0,0,0,0-.88C5.46,10.68,4.12,9.27,2.83,7.87c-4.11,5.59-4.23,15.65,2.9,22a17.16,17.16,0,0,0,11.42,4.36l-1-4.7A2,2,0,0,0,14.58,28,11.13,11.13,0,0,1,6.59,20.75Z"/><path class="cls-1" d="M27.71,20.75A11.23,11.23,0,0,0,27.52,13a1,1,0,0,1,0-.88c1.28-1.46,2.61-2.87,3.91-4.27,4.11,5.59,4.23,15.65-2.9,22a17.16,17.16,0,0,1-11.42,4.36l1.05-4.7A2,2,0,0,1,19.72,28,11.13,11.13,0,0,0,27.71,20.75Z"/><path class="cls-2" d="M48.94,18.88H41.73V3.4h7c3.15,0,5,1.57,5,4A3.52,3.52,0,0,1,51.1,11a3.75,3.75,0,0,1,3,3.72C54.08,17.23,52.2,18.88,48.94,18.88ZM48,6.43H45.5V9.67H48c1.23,0,1.92-.55,1.92-1.61S49.2,6.43,48,6.43Zm.26,6H45.5v3.42h2.78c1.25,0,2-.57,2-1.68S49.49,12.42,48.23,12.42Z"/><path class="cls-2" d="M63.36,19a7.79,7.79,0,0,1-8-7.94,7.94,7.94,0,0,1,15.87,0A7.75,7.75,0,0,1,63.36,19Zm0-3.44c2.47,0,4.08-1.79,4.08-4.5s-1.61-4.5-4.08-4.5-4.1,1.74-4.1,4.5S60.84,15.6,63.36,15.6Z"/><path class="cls-2" d="M87,3.4V18.88H83.22l-6.3-9.54v9.54H73.15V3.4h3.77l6.3,9.6V3.4Z"/><path class="cls-2" d="M89.44,3.4h3.77v9.27c0,1.83.9,2.88,2.69,2.88s2.73-1.05,2.73-2.88V3.4h3.77v9.24c0,4.28-3,6.4-6.57,6.4s-6.39-2.12-6.39-6.4Z"/><path class="cls-2" d="M110.43,19c-3.33,0-5.93-1.66-6-4.79h4A1.78,1.78,0,0,0,110.32,16c1.1,0,1.81-.55,1.81-1.46,0-2.86-7.74-1.32-7.7-6.81,0-2.93,2.4-4.57,5.65-4.57s5.64,1.68,5.79,4.63H111.8A1.68,1.68,0,0,0,110,6.21a1.37,1.37,0,0,0-1.59,1.41c0,2.69,7.65,1.47,7.65,6.66C116.07,16.88,114,19,110.43,19Z"/><path class="cls-2" d="M127.65,6.43h-5.71V9.56h5v2.91h-5v3.39h5.71v3h-9.48V3.4h9.48Z"/><path class="cls-2" d="M135.47,19c-3.33,0-5.93-1.66-6-4.79h4A1.79,1.79,0,0,0,135.36,16c1.11,0,1.81-.55,1.81-1.46,0-2.86-7.74-1.32-7.69-6.81,0-2.93,2.4-4.57,5.64-4.57s5.65,1.68,5.8,4.63h-4.08a1.67,1.67,0,0,0-1.79-1.6,1.36,1.36,0,0,0-1.58,1.41c0,2.69,7.65,1.47,7.65,6.66C141.12,16.88,139.09,19,135.47,19Z"/><path class="cls-1" d="M46.41,25.55a1.63,1.63,0,0,0-1.78-1.45c-1.5,0-2.31,1-2.29,3.83a2.68,2.68,0,0,1,2.55-1.45,2.83,2.83,0,0,1,2.93,3.14,2.89,2.89,0,0,1-3.06,3.12c-2.79,0-3.45-2-3.45-4.85s.95-4.77,3.33-4.77a2.65,2.65,0,0,1,2.86,2.43Zm-3.93,4a2.06,2.06,0,0,0,2.21,2.22,1.91,1.91,0,0,0,2-2.09,1.92,1.92,0,0,0-2-2.17A2,2,0,0,0,42.48,29.53Z"/><path class="cls-1" d="M54.53,25.55a1.62,1.62,0,0,0-1.78-1.45c-1.49,0-2.3,1-2.29,3.83A2.69,2.69,0,0,1,53,26.48,2.83,2.83,0,0,1,56,29.62a2.9,2.9,0,0,1-3.07,3.12c-2.78,0-3.44-2-3.44-4.85s.94-4.77,3.32-4.77a2.64,2.64,0,0,1,2.86,2.43Zm-3.92,4a2.05,2.05,0,0,0,2.21,2.22,1.91,1.91,0,0,0,2-2.09,1.92,1.92,0,0,0-2.05-2.17A2,2,0,0,0,50.61,29.53Z"/><path class="cls-1" d="M62.66,25.55a1.63,1.63,0,0,0-1.78-1.45c-1.5,0-2.31,1-2.29,3.83a2.68,2.68,0,0,1,2.55-1.45,2.83,2.83,0,0,1,2.93,3.14A2.89,2.89,0,0,1,61,32.74c-2.79,0-3.45-2-3.45-4.85s.95-4.77,3.33-4.77a2.65,2.65,0,0,1,2.86,2.43Zm-3.93,4a2.06,2.06,0,0,0,2.21,2.22,1.91,1.91,0,0,0,2-2.09,1.92,1.92,0,0,0-2-2.17A2,2,0,0,0,58.73,29.53Z"/></g></g></svg>