<svg xmlns="http://www.w3.org/2000/svg" viewBox="0 0 35 34.96"><defs><style>.cls-1{fill:#00ab58;}</style></defs><g id="Camada_2" data-name="Camada 2"><g id="Menu"><path class="cls-1" d="M2.44.32C3.6,1.52,4.61,2.56,5.6,3.62c.4.42.69.45,1.2.07a17.37,17.37,0,0,1,21.44,0c.46.33.76.37,1.15,0A38.38,38.38,0,0,1,32.61.52c-.47,1.1-.88,2.24-1.43,3.3a13.55,13.55,0,0,1-5,5.36.72.72,0,0,1-1-.06A11.32,11.32,0,0,0,9.91,9.06c-.29.25-.51.47-.95.2A14.82,14.82,0,0,1,2.44.32Z"/><path class="cls-1" d="M23.93,20c1.83-1,2.95-3,2.43-4.52a18.65,18.65,0,0,1-7.58,3.93C19.85,20.83,22.07,21,23.93,20Z"/><path class="cls-1" d="M10.94,20c1.84,1.05,4.12.92,5.19-.38-1.37-.57-2.73-1-4-1.69s-2.38-1.54-3.59-2.34C8.15,17.08,9.19,19,10.94,20Z"/><path class="cls-1" d="M6.73,21.17a11.42,11.42,0,0,1,.19-7.88,1.07,1.07,0,0,0,0-.9C5.57,10.9,4.21,9.46,2.89,8c-4.19,5.71-4.32,16,3,22.48A17.47,17.47,0,0,0,17.5,35l-1.07-4.8a2.09,2.09,0,0,0-1.55-1.56A11.32,11.32,0,0,1,6.73,21.17Z"/><path class="cls-1" d="M28.27,21.17a11.42,11.42,0,0,0-.19-7.88,1.07,1.07,0,0,1,0-.9c1.31-1.49,2.67-2.93,4-4.36,4.19,5.71,4.32,16-3,22.48A17.47,17.47,0,0,1,17.5,35l1.07-4.8a2.09,2.09,0,0,1,1.55-1.56A11.32,11.32,0,0,0,28.27,21.17Z"/></g></g></svg>