<svg xmlns="http://www.w3.org/2000/svg" viewBox="0 0 70.1 53.46"><defs><style>.cls-1{fill:#00e877;}.cls-2{fill:#00c465;}</style></defs><g id="Camada_2" data-name="Camada 2"><g id="us"><path class="cls-1" d="M45.44,17.6,37.67,29.91,49.61,52.09h17.6Z"/><path class="cls-2" d="M68.73,50.72H50.43L28.58,10.15h7.86a1.37,1.37,0,0,0,1.25-1.94L36.24,5.07l1.45-3.13A1.39,1.39,0,0,0,37.6.63,1.39,1.39,0,0,0,36.44,0H26.91a1.37,1.37,0,0,0-1.37,1.37l0,8.25L3.43,50.72H1.37a1.37,1.37,0,0,0,0,2.74H68.73a1.37,1.37,0,1,0,0-2.74ZM26.93,12.85l6.6,12.26-.27.74a2,2,0,0,1-3.41.58L27.06,23a1.37,1.37,0,0,0-2-.11l-2,2a2,2,0,0,1-2.63.14ZM34.3,2.74,33.49,4.5a1.36,1.36,0,0,0,0,1.15l.81,1.76h-6v-4a1.79,1.79,0,0,0,0-.23V2.74Zm-27.76,48,12.55-23.3a4.71,4.71,0,0,0,5.84-.6l.95-.93,1.85,2.27a4.65,4.65,0,0,0,3.64,1.74,4.43,4.43,0,0,0,.81-.07,4.7,4.7,0,0,0,3-1.75L47.32,50.72Z"/></g></g></svg>