<svg xmlns="http://www.w3.org/2000/svg" viewBox="0 0 137 33.66"><defs><style>.cls-1{fill:#00ab58;}.cls-2{fill:#fff;}</style></defs><g id="Camada_2" data-name="Camada 2"><g id="Lista_Casinos" data-name="Lista Casinos"><rect class="cls-1" width="137" height="33.66" rx="6.82"/><path class="cls-2" d="M19.33,17.91H18.09v3.14H16.64v-8.4h3a3.42,3.42,0,0,1,1.68.38,2.42,2.42,0,0,1,1,1,2.73,2.73,0,0,1,.31,1.29,2.59,2.59,0,0,1-.46,1.51,2.42,2.42,0,0,1-1.41.95l2,3.28H21.24Zm-1.24-1.2h1.36a2.37,2.37,0,0,0,1.27-.32,1.17,1.17,0,0,0,.52-1.08,1.15,1.15,0,0,0-.51-1.07,2.5,2.5,0,0,0-1.28-.3H18.09Z"/><path class="cls-2" d="M25.56,13.94v2.27H29v1.15H25.56v2.41h4v1.28H24.11v-8.4h5.42v1.29Z"/><path class="cls-2" d="M35.76,18.86H32.7L32,21.05H30.48l3.07-8.4h1.37L38,21.05H36.51Zm-.39-1.13-1.12-3.26h-.06l-1.11,3.26Z"/><path class="cls-2" d="M39,12.64h3.21a3.78,3.78,0,0,1,2,.51,3.45,3.45,0,0,1,1.32,1.45A5,5,0,0,1,46,16.84a5,5,0,0,1-.47,2.26,3.38,3.38,0,0,1-1.33,1.44,3.74,3.74,0,0,1-2,.5H39ZM42,19.73a2.37,2.37,0,0,0,1.81-.7,3.08,3.08,0,0,0,.68-2.2,3.07,3.07,0,0,0-.68-2.19,2.37,2.37,0,0,0-1.81-.7H40.45v5.79Z"/><path class="cls-2" d="M51.5,20.59A3.62,3.62,0,0,1,50.19,19a5.33,5.33,0,0,1-.44-2.2,5.45,5.45,0,0,1,.44-2.21,3.54,3.54,0,0,1,3.4-2.14A3.52,3.52,0,0,1,57,14.62a5.31,5.31,0,0,1,.45,2.22A5.18,5.18,0,0,1,57,19a3.49,3.49,0,0,1-1.31,1.55,3.71,3.71,0,0,1-2.06.56A3.79,3.79,0,0,1,51.5,20.59ZM55.26,19a3.64,3.64,0,0,0,.6-2.17,4.18,4.18,0,0,0-.27-1.54,2.4,2.4,0,0,0-.77-1.08,1.92,1.92,0,0,0-1.23-.41,2,2,0,0,0-1.24.41,2.47,2.47,0,0,0-.78,1.09,4.18,4.18,0,0,0-.27,1.54,4.3,4.3,0,0,0,.26,1.53,2.47,2.47,0,0,0,.78,1.07,2,2,0,0,0,1.25.4A1.94,1.94,0,0,0,55.26,19Z"/><path class="cls-2" d="M59.59,20.22a3.94,3.94,0,0,1-.92-2.85V12.65h1.45v4.64A3.51,3.51,0,0,0,60.53,19a2,2,0,0,0,3.09,0A3.51,3.51,0,0,0,64,17.29V12.65h1.43v4.72a4,4,0,0,1-.92,2.85,3.23,3.23,0,0,1-2.46,1A3.31,3.31,0,0,1,59.59,20.22Z"/><path class="cls-2" d="M69.67,17.91H68.43v3.14H67v-8.4h3a3.42,3.42,0,0,1,1.68.38,2.48,2.48,0,0,1,1,1A2.73,2.73,0,0,1,73,15.31a2.59,2.59,0,0,1-.46,1.51,2.45,2.45,0,0,1-1.41.95l2,3.28H71.58Zm-1.24-1.2h1.36a2.39,2.39,0,0,0,1.27-.32,1.17,1.17,0,0,0,.52-1.08,1.15,1.15,0,0,0-.51-1.07,2.5,2.5,0,0,0-1.28-.3H68.43Z"/><path class="cls-2" d="M79.71,17.91H78.48v3.14H77v-8.4h3a3.42,3.42,0,0,1,1.68.38,2.36,2.36,0,0,1,1,1A2.74,2.74,0,0,1,83,15.31a2.6,2.6,0,0,1-.47,1.51,2.42,2.42,0,0,1-1.4.95l2,3.28H81.62Zm-1.23-1.2h1.35a2.43,2.43,0,0,0,1.28-.32,1.19,1.19,0,0,0,.51-1.08,1.15,1.15,0,0,0-.51-1.07,2.47,2.47,0,0,0-1.28-.3H78.48Z"/><path class="cls-2" d="M85.94,13.94v2.27h3.42v1.15H85.94v2.41h4v1.28H84.49v-8.4h5.42v1.29Z"/><path class="cls-2" d="M90.68,12.65h1.45l2.27,6.88h.07l2.26-6.88h1.46l-2.81,8.42h-1.9Z"/><path class="cls-2" d="M99.36,12.65h1.46v8.4H99.36Z"/><path class="cls-2" d="M104,13.94v2.27h3.42v1.15H104v2.41h4v1.28h-5.43v-8.4h5.43v1.29Z"/><path class="cls-2" d="M108.71,12.65h1.46l1.58,6.54h.08l2.06-6.54h1.28l2.06,6.54h.07l1.59-6.54h1.47l-2.2,8.42h-1.79l-1.81-5.82h-.07l-1.8,5.82H110.9Z"/></g></g></svg>