<svg xmlns="http://www.w3.org/2000/svg" viewBox="0 0 137.5 34.16"><defs><style>.cls-1{fill:#00ab58;}</style></defs><g id="Camada_2" data-name="Camada 2"><g id="Lista_Casinos" data-name="Lista Casinos"><path class="cls-1" d="M130.43,34.16H7.07A7.08,7.08,0,0,1,0,27.09v-20A7.08,7.08,0,0,1,7.07,0H130.43a7.08,7.08,0,0,1,7.07,7.07v20A7.08,7.08,0,0,1,130.43,34.16ZM7.07.5A6.58,6.58,0,0,0,.5,7.07v20a6.58,6.58,0,0,0,6.57,6.57H130.43A6.58,6.58,0,0,0,137,27.09v-20A6.58,6.58,0,0,0,130.43.5Z"/><path class="cls-1" d="M19.58,18.16H18.34V21.3H16.89V12.9h3a3.42,3.42,0,0,1,1.68.38,2.42,2.42,0,0,1,1,1,2.73,2.73,0,0,1,.31,1.29,2.59,2.59,0,0,1-.46,1.51A2.42,2.42,0,0,1,21,18l2,3.28H21.49ZM18.34,17H19.7A2.37,2.37,0,0,0,21,16.64a1.17,1.17,0,0,0,.52-1.08A1.15,1.15,0,0,0,21,14.49a2.5,2.5,0,0,0-1.28-.3H18.34Z"/><path class="cls-1" d="M25.81,14.19v2.27h3.42v1.15H25.81V20h4V21.3H24.36V12.9h5.42v1.29Z"/><path class="cls-1" d="M36,19.11H33L32.2,21.3H30.73l3.07-8.4h1.37l3.07,8.4H36.76ZM35.62,18,34.5,14.72h-.06L33.33,18Z"/><path class="cls-1" d="M39.28,12.89h3.21a3.78,3.78,0,0,1,2,.51,3.45,3.45,0,0,1,1.32,1.45,5,5,0,0,1,.46,2.24,5,5,0,0,1-.47,2.26,3.38,3.38,0,0,1-1.33,1.44,3.74,3.74,0,0,1-2,.5H39.28ZM42.21,20a2.37,2.37,0,0,0,1.81-.7,3.08,3.08,0,0,0,.68-2.2A3.07,3.07,0,0,0,44,14.89a2.37,2.37,0,0,0-1.81-.7H40.7V20Z"/><path class="cls-1" d="M51.75,20.84a3.62,3.62,0,0,1-1.31-1.55,5.33,5.33,0,0,1-.44-2.2,5.45,5.45,0,0,1,.44-2.21,3.54,3.54,0,0,1,3.4-2.14,3.52,3.52,0,0,1,3.37,2.13,5.31,5.31,0,0,1,.45,2.22,5.18,5.18,0,0,1-.45,2.2,3.49,3.49,0,0,1-1.31,1.55,3.71,3.71,0,0,1-2.06.56A3.79,3.79,0,0,1,51.75,20.84Zm3.76-1.6a3.64,3.64,0,0,0,.6-2.17,4.18,4.18,0,0,0-.27-1.54,2.4,2.4,0,0,0-.77-1.08A1.92,1.92,0,0,0,53.84,14a2,2,0,0,0-1.24.41,2.47,2.47,0,0,0-.78,1.09,4.18,4.18,0,0,0-.27,1.54,4.3,4.3,0,0,0,.26,1.53,2.47,2.47,0,0,0,.78,1.07,2,2,0,0,0,1.25.4A1.94,1.94,0,0,0,55.51,19.24Z"/><path class="cls-1" d="M59.84,20.47a3.94,3.94,0,0,1-.92-2.85V12.9h1.45v4.64a3.51,3.51,0,0,0,.41,1.75,2,2,0,0,0,3.09,0,3.51,3.51,0,0,0,.42-1.75V12.9h1.43v4.72a4,4,0,0,1-.92,2.85,3.23,3.23,0,0,1-2.46,1A3.31,3.31,0,0,1,59.84,20.47Z"/><path class="cls-1" d="M69.92,18.16H68.68V21.3H67.23V12.9h3a3.42,3.42,0,0,1,1.68.38,2.48,2.48,0,0,1,1,1,2.73,2.73,0,0,1,.31,1.29,2.59,2.59,0,0,1-.46,1.51,2.45,2.45,0,0,1-1.41.95l2,3.28H71.83ZM68.68,17H70a2.39,2.39,0,0,0,1.27-.32,1.17,1.17,0,0,0,.52-1.08,1.15,1.15,0,0,0-.51-1.07,2.5,2.5,0,0,0-1.28-.3H68.68Z"/><path class="cls-1" d="M80,18.16H78.73V21.3H77.28V12.9h3a3.42,3.42,0,0,1,1.68.38,2.36,2.36,0,0,1,1,1,2.74,2.74,0,0,1,.32,1.29,2.6,2.6,0,0,1-.47,1.51,2.42,2.42,0,0,1-1.4.95l2,3.28H81.87ZM78.73,17h1.35a2.43,2.43,0,0,0,1.28-.32,1.19,1.19,0,0,0,.51-1.08,1.15,1.15,0,0,0-.51-1.07,2.47,2.47,0,0,0-1.28-.3H78.73Z"/><path class="cls-1" d="M86.19,14.19v2.27h3.42v1.15H86.19V20h4V21.3H84.74V12.9h5.42v1.29Z"/><path class="cls-1" d="M90.93,12.9h1.45l2.27,6.88h.07L97,12.9h1.46l-2.81,8.42h-1.9Z"/><path class="cls-1" d="M99.61,12.9h1.46v8.4H99.61Z"/><path class="cls-1" d="M104.21,14.19v2.27h3.42v1.15h-3.42V20h4V21.3h-5.43V12.9h5.43v1.29Z"/><path class="cls-1" d="M109,12.9h1.46L112,19.44h.08l2.06-6.54h1.28l2.06,6.54h.07l1.59-6.54h1.47l-2.2,8.42h-1.79l-1.81-5.82h-.07l-1.8,5.82h-1.79Z"/></g></g></svg>