<svg xmlns="http://www.w3.org/2000/svg" viewBox="0 0 137 33.66"><defs><style>.cls-1{fill:#00ab58;}.cls-2{fill:#fff;}</style></defs><g id="Camada_2" data-name="Camada 2"><g id="Lista"><rect class="cls-1" width="137" height="33.66" rx="5"/><path class="cls-2" d="M21.74,17.92H20.5v3.15H19.05v-8.4h3a3.4,3.4,0,0,1,1.68.37,2.42,2.42,0,0,1,1,1,2.63,2.63,0,0,1,.32,1.29,2.58,2.58,0,0,1-.47,1.52,2.46,2.46,0,0,1-1.4.94l2,3.29H23.64Zm-1.24-1.2h1.36a2.39,2.39,0,0,0,1.27-.32,1.19,1.19,0,0,0,.51-1.08,1.12,1.12,0,0,0-.51-1.06A2.37,2.37,0,0,0,21.86,14H20.5Z"/><path class="cls-2" d="M28,14v2.27h3.42v1.15H28v2.41h4v1.29H26.51v-8.4h5.43V14Z"/><path class="cls-2" d="M34.88,20.58A3.69,3.69,0,0,1,33.56,19a5.15,5.15,0,0,1-.45-2.18,5.24,5.24,0,0,1,.45-2.2,3.72,3.72,0,0,1,1.32-1.56,3.63,3.63,0,0,1,2-.57,3.45,3.45,0,0,1,2.39.83,3.91,3.91,0,0,1,1.22,2.18H39.13a2.36,2.36,0,0,0-.77-1.25A2.11,2.11,0,0,0,37,13.77a2,2,0,0,0-1.73.83,3.81,3.81,0,0,0-.58,2.22A3.74,3.74,0,0,0,35.23,19a2,2,0,0,0,1.72.84,2.07,2.07,0,0,0,1.35-.45,2.34,2.34,0,0,0,.76-1.15h1.42a3.82,3.82,0,0,1-1.22,2.08,3.42,3.42,0,0,1-2.33.8A3.55,3.55,0,0,1,34.88,20.58Z"/><path class="cls-2" d="M43.22,14v2.27h3.42v1.15H43.22v2.41h4v1.29H41.76v-8.4h5.43V14Z"/><path class="cls-2" d="M48.57,12.67h1.68L54,18.8h0V12.67H55.5v8.41H53.82l-3.76-6H50v6H48.57Z"/><path class="cls-2" d="M62.87,14H60.53v7.12H59.08V14H56.74V12.67h6.13Z"/><path class="cls-2" d="M69.26,19.78v1.29H64.07v-8.4h1.46v7.11Z"/><path class="cls-2" d="M71.64,21.07v-3L68.9,12.67h1.53l1.91,3.92h.07l1.89-3.92h1.54L73.1,18.11v3Z"/><path class="cls-2" d="M84.53,18.87H81.47l-.74,2.2H79.25l3.07-8.4h1.37l3.07,8.4H85.29Zm-.38-1.13L83,14.48H83l-1.1,3.26Z"/><path class="cls-2" d="M87.81,12.65H91a3.75,3.75,0,0,1,2,.51,3.32,3.32,0,0,1,1.32,1.45,5,5,0,0,1,.47,2.24,4.93,4.93,0,0,1-.48,2.26A3.38,3.38,0,0,1,93,20.56a3.88,3.88,0,0,1-2,.49H87.81Zm2.93,7.1A2.39,2.39,0,0,0,92.55,19a3.07,3.07,0,0,0,.67-2.2,3.07,3.07,0,0,0-.67-2.19,2.38,2.38,0,0,0-1.81-.7H89.22v5.8Z"/><path class="cls-2" d="M96,12.65H99.2a3.72,3.72,0,0,1,2,.51,3.32,3.32,0,0,1,1.32,1.45,4.9,4.9,0,0,1,.47,2.24,5.06,5.06,0,0,1-.47,2.26,3.46,3.46,0,0,1-1.33,1.45,3.88,3.88,0,0,1-2,.49H96Zm2.93,7.1a2.39,2.39,0,0,0,1.81-.71,3.07,3.07,0,0,0,.67-2.2,3.07,3.07,0,0,0-.67-2.19,2.38,2.38,0,0,0-1.81-.7H97.41v5.8Z"/><path class="cls-2" d="M105.64,14v2.27h3.42v1.15h-3.42v2.41h4v1.29h-5.42v-8.4h5.42V14Z"/><path class="cls-2" d="M111,12.65h3.21a3.72,3.72,0,0,1,2,.51,3.32,3.32,0,0,1,1.32,1.45,5,5,0,0,1,.47,2.24,5.06,5.06,0,0,1-.47,2.26,3.46,3.46,0,0,1-1.33,1.45,3.88,3.88,0,0,1-2,.49H111Zm2.93,7.1a2.39,2.39,0,0,0,1.81-.71,3.07,3.07,0,0,0,.67-2.2,3.07,3.07,0,0,0-.67-2.19,2.38,2.38,0,0,0-1.81-.7h-1.51v5.8Z"/></g></g></svg>