<svg xmlns="http://www.w3.org/2000/svg" viewBox="0 0 138 34.66"><defs><style>.cls-1{fill:#1e2d38;}.cls-2{fill:#fff;}</style></defs><g id="Camada_2" data-name="Camada 2"><g id="Lista"><path class="cls-1" d="M132.5,34.66H5.5A5.51,5.51,0,0,1,0,29.16V5.5A5.51,5.51,0,0,1,5.5,0h127A5.51,5.51,0,0,1,138,5.5V29.16A5.51,5.51,0,0,1,132.5,34.66ZM5.5,1A4.51,4.51,0,0,0,1,5.5V29.16a4.51,4.51,0,0,0,4.5,4.5h127a4.51,4.51,0,0,0,4.5-4.5V5.5A4.51,4.51,0,0,0,132.5,1Z"/><path class="cls-2" d="M22.24,18.42H21v3.15H19.55v-8.4h3a3.4,3.4,0,0,1,1.68.37,2.42,2.42,0,0,1,1,1,2.63,2.63,0,0,1,.32,1.29,2.58,2.58,0,0,1-.47,1.52,2.46,2.46,0,0,1-1.4.94l2,3.29H24.14ZM21,17.22h1.36a2.39,2.39,0,0,0,1.27-.32,1.19,1.19,0,0,0,.51-1.08,1.12,1.12,0,0,0-.51-1.06,2.37,2.37,0,0,0-1.27-.31H21Z"/><path class="cls-2" d="M28.46,14.45v2.27h3.42v1.15H28.46v2.41h4v1.29H27v-8.4h5.43v1.28Z"/><path class="cls-2" d="M35.38,21.08a3.69,3.69,0,0,1-1.32-1.57,5.15,5.15,0,0,1-.45-2.18,5.24,5.24,0,0,1,.45-2.2,3.72,3.72,0,0,1,1.32-1.56,3.63,3.63,0,0,1,2-.57,3.45,3.45,0,0,1,2.39.83A3.91,3.91,0,0,1,41,16H39.63a2.36,2.36,0,0,0-.77-1.25,2.11,2.11,0,0,0-1.41-.49,2,2,0,0,0-1.73.83,3.81,3.81,0,0,0-.58,2.22,3.74,3.74,0,0,0,.59,2.22,2,2,0,0,0,1.72.84,2.07,2.07,0,0,0,1.35-.45,2.34,2.34,0,0,0,.76-1.15H41a3.82,3.82,0,0,1-1.22,2.08,3.42,3.42,0,0,1-2.33.8A3.55,3.55,0,0,1,35.38,21.08Z"/><path class="cls-2" d="M43.72,14.45v2.27h3.42v1.15H43.72v2.41h4v1.29H42.26v-8.4h5.43v1.28Z"/><path class="cls-2" d="M49.07,13.17h1.68l3.78,6.13h0V13.17H56v8.41H54.32l-3.76-6h-.05v6H49.07Z"/><path class="cls-2" d="M63.37,14.45H61v7.12H59.58V14.45H57.24V13.17h6.13Z"/><path class="cls-2" d="M69.76,20.28v1.29H64.57v-8.4H66v7.11Z"/><path class="cls-2" d="M72.14,21.57v-3L69.4,13.17h1.53l1.91,3.92h.07l1.89-3.92h1.54L73.6,18.61v3Z"/><path class="cls-2" d="M85,19.37H82l-.74,2.2H79.75l3.07-8.4h1.37l3.07,8.4H85.79Zm-.38-1.13L83.52,15h-.06l-1.1,3.26Z"/><path class="cls-2" d="M88.31,13.15h3.2a3.75,3.75,0,0,1,2,.51,3.32,3.32,0,0,1,1.32,1.45,5,5,0,0,1,.47,2.24,4.93,4.93,0,0,1-.48,2.26,3.38,3.38,0,0,1-1.32,1.45,3.88,3.88,0,0,1-2,.49H88.31Zm2.93,7.1a2.39,2.39,0,0,0,1.81-.71,3.07,3.07,0,0,0,.67-2.2,3.07,3.07,0,0,0-.67-2.19,2.38,2.38,0,0,0-1.81-.7H89.72v5.8Z"/><path class="cls-2" d="M96.49,13.15H99.7a3.72,3.72,0,0,1,2,.51A3.32,3.32,0,0,1,103,15.11a4.9,4.9,0,0,1,.47,2.24,5.06,5.06,0,0,1-.47,2.26,3.46,3.46,0,0,1-1.33,1.45,3.88,3.88,0,0,1-2,.49H96.49Zm2.93,7.1a2.39,2.39,0,0,0,1.81-.71,3.07,3.07,0,0,0,.67-2.2,3.07,3.07,0,0,0-.67-2.19,2.38,2.38,0,0,0-1.81-.7H97.91v5.8Z"/><path class="cls-2" d="M106.14,14.45v2.27h3.42v1.15h-3.42v2.41h4v1.29h-5.42v-8.4h5.42v1.28Z"/><path class="cls-2" d="M111.49,13.15h3.21a3.72,3.72,0,0,1,2,.51A3.32,3.32,0,0,1,118,15.11a5,5,0,0,1,.47,2.24,5.06,5.06,0,0,1-.47,2.26,3.46,3.46,0,0,1-1.33,1.45,3.88,3.88,0,0,1-2,.49h-3.18Zm2.93,7.1a2.39,2.39,0,0,0,1.81-.71,3.07,3.07,0,0,0,.67-2.2,3.07,3.07,0,0,0-.67-2.19,2.38,2.38,0,0,0-1.81-.7h-1.51v5.8Z"/></g></g></svg>