<svg xmlns="http://www.w3.org/2000/svg" viewBox="0 0 23.51 19.05"><defs><style>.cls-1{fill:#fff;}</style></defs><g id="Camada_2" data-name="Camada 2"><g id="Casinos_Principais" data-name="Casinos Principais"><path class="cls-1" d="M14,19.05a.85.85,0,0,1-.61-.25.87.87,0,0,1,0-1.23l8-8-8-8a.87.87,0,0,1,0-1.23.88.88,0,0,1,1.22,0l8.66,8.66a.91.91,0,0,1,.26.62.87.87,0,0,1-.26.61L14.59,18.8A.85.85,0,0,1,14,19.05Z"/><path class="cls-1" d="M.87,19.05a.86.86,0,0,1-.62-.25.89.89,0,0,1,0-1.23l8.05-8-8-8A.89.89,0,0,1,.25.25a.89.89,0,0,1,1.23,0l8.66,8.66a.9.9,0,0,1,.25.62.86.86,0,0,1-.25.61L1.48,18.8A.85.85,0,0,1,.87,19.05Z"/></g></g></svg>