<svg xmlns="http://www.w3.org/2000/svg" viewBox="0 0 199.48 199.27"><defs><style>.cls-1{opacity:0.05;}.cls-2{fill:#fff;}</style></defs><g id="Camada_2" data-name="Camada 2"><g id="us"><g class="cls-1"><path class="cls-2" d="M13.93,1.83c6.56,6.84,12.34,12.76,18,18.79,2.26,2.42,3.94,2.57,6.83.44C76.72-7,122.83-7,161,21.12c2.58,1.9,4.29,2.13,6.52-.26A216.67,216.67,0,0,1,185.87,3c-2.7,6.28-5,12.76-8.17,18.81a77.42,77.42,0,0,1-28.44,30.53c-2.16,1.33-3.63,1.63-5.86-.35-25.35-22.55-61.52-22.65-86.9-.35-1.68,1.47-2.94,2.69-5.42,1.17C32.09,41.1,20.45,24.11,13.93,1.83Z"/><path class="cls-2" d="M136.37,114c10.45-5.65,16.84-17,13.84-25.74-12.93,10-26.39,18.84-43.17,22.4C113.14,118.69,125.78,119.76,136.37,114Z"/><path class="cls-2" d="M62.36,113.7c10.5,6,23.47,5.25,29.58-2.18-7.8-3.23-15.57-5.8-22.68-9.59S55.67,93.12,48.81,88.57C46.47,97.37,52.4,108,62.36,113.7Z"/><path class="cls-2" d="M38.33,120.67c-5-15.14-4.48-30,1.09-44.94.57-1.51.69-4.11-.21-5.13C31.74,62.14,24,53.92,16.46,45.78c-23.88,32.53-24.63,91,16.88,128.09a99.75,99.75,0,0,0,66.4,25.4l-6.12-27.38a11.82,11.82,0,0,0-8.81-8.9A64.63,64.63,0,0,1,38.33,120.67Z"/><path class="cls-2" d="M161.15,120.67c5-15.14,4.48-30-1.1-44.94-.57-1.51-.68-4.11.22-5.13,7.46-8.46,15.22-16.68,22.75-24.82,23.88,32.53,24.62,91-16.88,128.09a99.77,99.77,0,0,1-66.4,25.4l6.12-27.38a11.8,11.8,0,0,1,8.81-8.9A64.66,64.66,0,0,0,161.15,120.67Z"/></g></g></g></svg>