<svg xmlns="http://www.w3.org/2000/svg" viewBox="0 0 160.57 39.45"><defs><style>.cls-1{fill:#009e47;}.cls-2{fill:#fff;}</style></defs><g id="Camada_2" data-name="Camada 2"><g id="Exportação"><rect class="cls-1" width="160.57" height="39.45" rx="7.99"/><path class="cls-2" d="M39.23,14.46h1.84l2.86,8.69H44l2.85-8.69h1.85L45.18,25.09H42.77Z"/><path class="cls-2" d="M50.2,14.46h1.85V25.08H50.2Z"/><path class="cls-2" d="M56,16.09V19h4.32v1.46H56v3.05h5v1.62H54.18V14.46H61v1.63Z"/><path class="cls-2" d="M62,14.46h1.85l2,8.27H66l2.61-8.27h1.62l2.59,8.27h.09l2-8.27h1.85L74,25.09H71.7l-2.29-7.35h-.09L67,25.09H64.78Z"/><path class="cls-2" d="M81.35,14.46h2.73l2.61,7.07h0l2.62-7.07h2.73V25.08H90.28V17.13h-.07l-2.88,8H86.11l-2.88-7.95h-.07v8H81.35Z"/><path class="cls-2" d="M95.92,24.49a4.56,4.56,0,0,1-1.65-1.95,6.73,6.73,0,0,1-.56-2.78,6.83,6.83,0,0,1,.56-2.8,4.59,4.59,0,0,1,1.66-2,5.07,5.07,0,0,1,5.24,0,4.55,4.55,0,0,1,1.65,2,6.68,6.68,0,0,1,.56,2.81,6.58,6.58,0,0,1-.56,2.78,4.49,4.49,0,0,1-1.65,1.95,4.72,4.72,0,0,1-2.61.71A4.77,4.77,0,0,1,95.92,24.49Zm4.75-2a4.65,4.65,0,0,0,.76-2.74,5.16,5.16,0,0,0-.34-1.94,3.12,3.12,0,0,0-1-1.38,2.68,2.68,0,0,0-3.12,0,3.15,3.15,0,0,0-1,1.38,5.25,5.25,0,0,0-.34,1.95A5.31,5.31,0,0,0,96,21.67,3,3,0,0,0,97,23a2.52,2.52,0,0,0,1.57.5A2.45,2.45,0,0,0,100.67,22.47Z"/><path class="cls-2" d="M108.45,21.11h-1.56v4h-1.84V14.46h3.82a4.24,4.24,0,0,1,2.12.48,3.09,3.09,0,0,1,1.26,1.25,3.54,3.54,0,0,1,.4,1.63,3.32,3.32,0,0,1-.59,1.91,3.1,3.1,0,0,1-1.78,1.19l2.52,4.16h-1.94Zm-1.56-1.52h1.71a3,3,0,0,0,1.61-.41,1.49,1.49,0,0,0,.65-1.36,1.45,1.45,0,0,0-.65-1.35,3.14,3.14,0,0,0-1.61-.38h-1.71Z"/><path class="cls-2" d="M116.32,16.09V19h4.32v1.46h-4.32v3.05h5v1.62h-6.86V14.46h6.86v1.63Z"/></g></g></svg>