<svg xmlns="http://www.w3.org/2000/svg" viewBox="0 0 138 34.66"><defs><style>.cls-1{fill:#1e2d38;}.cls-2{fill:#fff;}</style></defs><g id="Camada_2" data-name="Camada 2"><g id="Lista"><path class="cls-1" d="M132.5,34.66H5.5A5.51,5.51,0,0,1,0,29.16V5.5A5.51,5.51,0,0,1,5.5,0h127A5.51,5.51,0,0,1,138,5.5V29.16A5.51,5.51,0,0,1,132.5,34.66ZM5.5,1A4.51,4.51,0,0,0,1,5.5V29.16a4.51,4.51,0,0,0,4.5,4.5h127a4.51,4.51,0,0,0,4.5-4.5V5.5A4.51,4.51,0,0,0,132.5,1Z"/><polygon class="cls-2" points="118.98 20.63 114.54 16.19 123.42 16.19 118.98 20.63"/><path class="cls-2" d="M16,21.27A2.73,2.73,0,0,1,15,20.22a2.61,2.61,0,0,1-.37-1.34v-.07h1.6v.07a1.54,1.54,0,0,0,.16.68,1.46,1.46,0,0,0,.53.58,1.61,1.61,0,0,0,.89.23A1.69,1.69,0,0,0,18.83,20a1.11,1.11,0,0,0,.42-.9,1,1,0,0,0-.33-.77A1.84,1.84,0,0,0,18.1,18L17,17.77a4.14,4.14,0,0,1-1.49-.67,1.88,1.88,0,0,1-.72-1.67,2.26,2.26,0,0,1,1.38-2.14,3.79,3.79,0,0,1,3.11.07,2.63,2.63,0,0,1,1,1,2.36,2.36,0,0,1,.35,1.24v0H19.06v0a1.53,1.53,0,0,0-.14-.6,1.24,1.24,0,0,0-.47-.53,1.59,1.59,0,0,0-.86-.21,1.37,1.37,0,0,0-1,.33,1.13,1.13,0,0,0-.36.86.93.93,0,0,0,.32.74,1.92,1.92,0,0,0,.84.38l1,.22a3.89,3.89,0,0,1,1.61.73,1.9,1.9,0,0,1,.69,1.61,2.37,2.37,0,0,1-.39,1.34,2.52,2.52,0,0,1-1.08.9,3.57,3.57,0,0,1-1.56.33A3.49,3.49,0,0,1,16,21.27Z"/><path class="cls-2" d="M23.68,21.09a3.46,3.46,0,0,1-1.31-1.54,5.21,5.21,0,0,1-.45-2.2,5.31,5.31,0,0,1,.45-2.22,3.51,3.51,0,0,1,1.31-1.56,3.71,3.71,0,0,1,5.46,1.56,5.77,5.77,0,0,1,0,4.42,3.59,3.59,0,0,1-1.31,1.54,4.06,4.06,0,0,1-4.15,0Zm3.75-1.59a3.67,3.67,0,0,0,.6-2.18,4.34,4.34,0,0,0-.26-1.53A2.53,2.53,0,0,0,27,14.7a2.09,2.09,0,0,0-2.46,0,2.47,2.47,0,0,0-.79,1.09,4.24,4.24,0,0,0-.27,1.55,4.17,4.17,0,0,0,.27,1.53,2.32,2.32,0,0,0,.78,1.07,2,2,0,0,0,1.24.4A1.93,1.93,0,0,0,27.43,19.5Z"/><path class="cls-2" d="M33.59,18.42H32.35v3.14H30.9v-8.4h3a3.42,3.42,0,0,1,1.68.38,2.4,2.4,0,0,1,1,1,2.8,2.8,0,0,1,.32,1.29,2.63,2.63,0,0,1-.47,1.52,2.41,2.41,0,0,1-1.4.94l2,3.29H35.49Zm-1.24-1.2h1.36A2.33,2.33,0,0,0,35,16.89a1.17,1.17,0,0,0,.51-1.08A1.13,1.13,0,0,0,35,14.75a2.46,2.46,0,0,0-1.27-.31H32.35Z"/><path class="cls-2" d="M44,14.44H41.7v7.12H40.25V14.44H37.91V13.16H44Z"/><path class="cls-2" d="M48,13.16h3.5a2.57,2.57,0,0,1,1.33.31,1.91,1.91,0,0,1,.78.79,2.19,2.19,0,0,1,.25,1,1.76,1.76,0,0,1-.4,1.2,1.73,1.73,0,0,1-.9.58v.08a1.85,1.85,0,0,1,.74.25,2,2,0,0,1,.7.65,1.92,1.92,0,0,1,.29,1.09,2.59,2.59,0,0,1-.27,1.15,2.22,2.22,0,0,1-.84.91,2.72,2.72,0,0,1-1.46.36H48Zm3,3.55a1.77,1.77,0,0,0,1-.29,1,1,0,0,0,.42-.92,1,1,0,0,0-.41-.89,1.85,1.85,0,0,0-1-.27H49.46v2.37Zm.33,3.67a1.9,1.9,0,0,0,1.08-.3,1.11,1.11,0,0,0,.45-1,1.11,1.11,0,0,0-.45-1,1.9,1.9,0,0,0-1.08-.3H49.46v2.6Z"/><path class="cls-2" d="M57.85,21.56V18.61L55.1,13.16h1.54l1.91,3.92h.07l1.88-3.92h1.55L59.3,18.61v2.95Z"/></g></g></svg>