<svg xmlns="http://www.w3.org/2000/svg" viewBox="0 0 20.82 19.95"><defs><style>.cls-1{fill:#ffc107;}</style></defs><g id="Camada_2" data-name="Camada 2"><g id="Casinos_Principais" data-name="Casinos Principais"><path class="cls-1" d="M20.77,7.54a1.11,1.11,0,0,0-1-.76l-6-.55L11.43.67a1.11,1.11,0,0,0-2,0L7,6.23,1,6.78a1.11,1.11,0,0,0-1,.76A1.12,1.12,0,0,0,.38,8.72l4.54,4L3.58,18.6A1.11,1.11,0,0,0,4.66,20a1.07,1.07,0,0,0,.57-.16l5.18-3.09,5.18,3.09a1.11,1.11,0,0,0,1.65-1.19L15.9,12.7l4.54-4a1.12,1.12,0,0,0,.33-1.18Z"/></g></g></svg>