<svg xmlns="http://www.w3.org/2000/svg" viewBox="0 0 15.13 14.5"><defs><style>.cls-1{fill:#ffc107;}</style></defs><g id="Camada_2" data-name="Camada 2"><g id="Lista_Casinos" data-name="Lista Casinos"><path class="cls-1" d="M15.09,5.48a.78.78,0,0,0-.69-.55L10,4.53,8.31.49A.81.81,0,0,0,7.57,0a.79.79,0,0,0-.74.49l-1.73,4-4.37.4a.8.8,0,0,0-.46,1.4l3.31,2.9-1,4.29a.81.81,0,0,0,.79,1,.87.87,0,0,0,.41-.11l3.77-2.25,3.76,2.25a.82.82,0,0,0,.89,0,.81.81,0,0,0,.31-.83l-1-4.29,3.3-2.89a.82.82,0,0,0,.23-.86Z"/></g></g></svg>