<svg xmlns="http://www.w3.org/2000/svg" xmlns:xlink="http://www.w3.org/1999/xlink" viewBox="0 0 1240.15 110.09"><defs><style>.cls-1{fill:url(#Gradiente_sem_nome_3);}.cls-2{fill:url(#Gradiente_sem_nome_61);}.cls-3{fill:url(#Gradiente_sem_nome_2);}.cls-4{fill:#00ab58;}</style><linearGradient id="Gradiente_sem_nome_3" x1="620.07" x2="620.07" y2="79.79" gradientUnits="userSpaceOnUse"><stop offset="0" stop-color="#0c131e"/><stop offset="0.36" stop-color="#0c151f"/><stop offset="0.51" stop-color="#0b1c22"/><stop offset="0.63" stop-color="#0a2926"/><stop offset="0.72" stop-color="#093b2d"/><stop offset="0.81" stop-color="#075236"/><stop offset="0.89" stop-color="#056f41"/><stop offset="0.95" stop-color="#02904e"/><stop offset="1" stop-color="#00ab58"/></linearGradient><linearGradient id="Gradiente_sem_nome_61" x1="620.07" y1="-0.48" x2="620.07" y2="80.29" gradientUnits="userSpaceOnUse"><stop offset="0" stop-color="#0c131e"/><stop offset="0.19" stop-color="#0e1620"/><stop offset="0.33" stop-color="#122026"/><stop offset="0.46" stop-color="#1b3031"/><stop offset="0.58" stop-color="#26483f"/><stop offset="0.7" stop-color="#366653"/><stop offset="0.81" stop-color="#488b6a"/><stop offset="0.92" stop-color="#5eb585"/><stop offset="1" stop-color="#71dc9e"/></linearGradient><linearGradient id="Gradiente_sem_nome_2" x1="620.05" y1="49.49" x2="620.05" y2="110.09" gradientUnits="userSpaceOnUse"><stop offset="0" stop-color="#04814a"/><stop offset="0.18" stop-color="#06653f"/><stop offset="0.58" stop-color="#0c1e22"/><stop offset="0.61" stop-color="#0c1920"/><stop offset="0.7" stop-color="#0c1c21"/><stop offset="0.76" stop-color="#0b2525"/><stop offset="0.82" stop-color="#0a352b"/><stop offset="0.87" stop-color="#084b33"/><stop offset="0.92" stop-color="#06673e"/><stop offset="0.96" stop-color="#038a4b"/><stop offset="1" stop-color="#00ab58"/></linearGradient></defs><g id="Camada_2" data-name="Camada 2"><g id="Lista_Casinos" data-name="Lista Casinos"><path class="cls-1" d="M1240.15,0c-186.42,51-397,79.75-620,79.75S186.46,51.05,0,0"/><path class="cls-2" d="M1240.15,0q-75.59,20.76-152.58,35.84T932.82,60.73A2517.2,2517.2,0,0,1,620.07,80.29,2515,2515,0,0,1,307.33,60.71q-77.77-9.83-154.76-24.86T0,0Q75.65,20.52,152.67,35.37T307.41,60.06A2517.6,2517.6,0,0,0,620.07,79.29,2517.58,2517.58,0,0,0,932.73,60.08q77.76-9.75,154.75-24.68T1240.15,0Z"/><circle class="cls-3" cx="620.05" cy="79.79" r="30.3"/><path class="cls-4" d="M620.05,55a24.81,24.81,0,1,0,24.81,24.81A24.81,24.81,0,0,0,620.05,55Zm6.33,1.19a24.42,24.42,0,0,1,11,6.33l-4.59,4.59a18,18,0,0,0-8.06-4.65Zm-18.56,2.44a24.62,24.62,0,0,1,5.9-2.44l1.68,6.27a18.18,18.18,0,0,0-4.33,1.79,17.67,17.67,0,0,0-3.72,2.86l-4.59-4.59A24.74,24.74,0,0,1,607.82,58.61ZM596.43,86.12a24.51,24.51,0,0,1,0-12.65l6.27,1.67a17.75,17.75,0,0,0,0,9.3Zm17.29,17.3a24.56,24.56,0,0,1-11-6.33l4.59-4.59a17.63,17.63,0,0,0,3.72,2.85,17.82,17.82,0,0,0,4.33,1.8ZM602.44,79.79A17.61,17.61,0,1,1,620.05,97.4,17.61,17.61,0,0,1,602.44,79.79ZM632.28,101a24.66,24.66,0,0,1-5.9,2.45l-1.68-6.27a17.65,17.65,0,0,0,4.33-1.8,18,18,0,0,0,3.73-2.85l4.59,4.59A24.49,24.49,0,0,1,632.28,101Zm5.13-16.53a18,18,0,0,0,0-9.3l6.27-1.67a24.51,24.51,0,0,1,0,12.65Z"/><path class="cls-4" d="M627.87,87.9A7.08,7.08,0,0,1,625,90.27a10.79,10.79,0,0,1-4.12,1v2.67h-1.63V91.18a9.72,9.72,0,0,1-4.39-1.37A7.63,7.63,0,0,1,612.14,87a7.4,7.4,0,0,1-.95-3.44h5.22a4.33,4.33,0,0,0,.75,1.91,3.41,3.41,0,0,0,2.09,1.32V81.65l-.52-.13a20.72,20.72,0,0,1-3.15-1.09,7.44,7.44,0,0,1-2.61-2,5.38,5.38,0,0,1-1.19-3.61,5.71,5.71,0,0,1,2-4.57,9,9,0,0,1,5.45-1.92V65.69h1.63v2.62a8,8,0,0,1,5.65,2.23,7.39,7.39,0,0,1,2,5.11h-5a3.73,3.73,0,0,0-.67-2,2.93,2.93,0,0,0-2-1.21v5l1.6.43a11.35,11.35,0,0,1,4.67,2.28,5.32,5.32,0,0,1,1.76,4.21A6.13,6.13,0,0,1,627.87,87.9ZM617.6,76.2a4.81,4.81,0,0,0,1.65.85V72.42a3.38,3.38,0,0,0-1.74.73,2,2,0,0,0,.09,3Zm5.47,9.94a2,2,0,0,0,.85-1.61,1.83,1.83,0,0,0-.88-1.62,5.78,5.78,0,0,0-1.9-.8l-.26-.06v4.86A3.91,3.91,0,0,0,623.07,86.14Z"/></g></g></svg>