<svg xmlns="http://www.w3.org/2000/svg" viewBox="0 0 22.88 11.05"><defs><style>.cls-1{fill:#fff;}</style></defs><g id="Camada_2" data-name="Camada 2"><g id="Exportação"><path class="cls-1" d="M17.17,8.4a.28.28,0,0,1,0,.25.27.27,0,0,1-.22.11H15.55a3.18,3.18,0,0,1-3.07-2.24.24.24,0,0,1,0-.23.25.25,0,0,1,.2-.1h6.21a.26.26,0,0,1,.19.07l0,0a.28.28,0,0,1,0,.25l-.28.59,4-1.62-4-1.62.28.6a.26.26,0,0,1,0,.24.25.25,0,0,1-.22.12h-6.2a.32.32,0,0,1-.19-.07l0,0a.28.28,0,0,1,0-.23,3.23,3.23,0,0,1,3.07-2.25h1.38a.23.23,0,0,1,.18.08.08.08,0,0,1,0,0,.26.26,0,0,1,0,.24l-.28.6,4-1.62L16.89,0l.28.59a.28.28,0,0,1,0,.25.27.27,0,0,1-.22.12H15.55a4.56,4.56,0,0,0-4.48,3.69.26.26,0,0,1-.25.21H.66a.7.7,0,0,0-.47.19A.7.7,0,0,0,0,5.52a.67.67,0,0,0,.66.67H10.82a.24.24,0,0,1,.18.07.33.33,0,0,1,.07.13,4.56,4.56,0,0,0,4.48,3.7h1.38a.23.23,0,0,1,.18.08.08.08,0,0,1,0,0,.26.26,0,0,1,0,.24l-.28.6,4-1.62-4-1.62Z"/></g></g></svg>