<svg xmlns="http://www.w3.org/2000/svg" viewBox="0 0 160.57 39.45"><defs><style>.cls-1{fill:#00ab58;}.cls-2{fill:#fff;}</style></defs><g id="Camada_2" data-name="Camada 2"><g id="Livestream"><rect class="cls-1" width="160.57" height="39.45" rx="7.99"/><path class="cls-2" d="M11.28,14.46h1.85l2,8.27h.09l2.6-8.27h1.63l2.59,8.27h.09l2-8.27H26L23.23,25.09H21l-2.29-7.35h-.09l-2.27,7.35H14.06Z"/><path class="cls-2" d="M32.21,22.3H28.34l-.94,2.78H25.54l3.88-10.62h1.73L35,25.08H33.16Zm-.49-1.42L30.3,16.75h-.08l-1.39,4.13Z"/><path class="cls-2" d="M42.55,16.09h-3v9H37.76v-9h-3V14.46h7.75Z"/><path class="cls-2" d="M45.72,24.46a4.7,4.7,0,0,1-1.66-2,7,7,0,0,1,0-5.54,4.64,4.64,0,0,1,1.66-2,4.58,4.58,0,0,1,2.59-.73,4.39,4.39,0,0,1,3,1.05,5,5,0,0,1,1.54,2.76H51.08a2.92,2.92,0,0,0-1-1.59,2.63,2.63,0,0,0-1.77-.61,2.49,2.49,0,0,0-2.18,1.05,4.76,4.76,0,0,0-.75,2.8,4.79,4.79,0,0,0,.75,2.81,2.52,2.52,0,0,0,2.18,1.06A2.61,2.61,0,0,0,50,23a3,3,0,0,0,1-1.45H52.8a4.86,4.86,0,0,1-1.55,2.63,4.36,4.36,0,0,1-2.94,1A4.51,4.51,0,0,1,45.72,24.46Z"/><path class="cls-2" d="M62.79,14.46V25.08H60.94V20.47h-4.7v4.61H54.4V14.46h1.84V19h4.7V14.46Z"/><path class="cls-2" d="M70.11,24.49a4.49,4.49,0,0,1-1.65-1.95,6.73,6.73,0,0,1-.56-2.78,6.83,6.83,0,0,1,.56-2.8,4.59,4.59,0,0,1,1.66-2,5.07,5.07,0,0,1,5.24,0A4.55,4.55,0,0,1,77,17a6.84,6.84,0,0,1,.56,2.81A6.73,6.73,0,0,1,77,22.54a4.49,4.49,0,0,1-1.65,1.95,4.72,4.72,0,0,1-2.61.71A4.77,4.77,0,0,1,70.11,24.49Zm4.75-2a4.65,4.65,0,0,0,.76-2.74,5.37,5.37,0,0,0-.34-1.94,3.13,3.13,0,0,0-1-1.38,2.4,2.4,0,0,0-1.55-.5,2.43,2.43,0,0,0-1.56.5,3.17,3.17,0,0,0-1,1.38,5.46,5.46,0,0,0-.34,1.95,5.31,5.31,0,0,0,.34,1.93,3,3,0,0,0,1,1.36,2.55,2.55,0,0,0,1.58.5A2.45,2.45,0,0,0,74.86,22.47Z"/><path class="cls-2" d="M79.24,14.46h2.12l4.78,7.75h0V14.46H88V25.09H85.88l-4.76-7.58h-.06v7.58H79.24Z"/><path class="cls-2" d="M100.8,16.09h-3v9H96v-9h-3V14.46h7.75Z"/><path class="cls-2" d="M101.59,14.46h1.85l2,8.27h.09l2.61-8.27h1.62l2.59,8.27h.09l2-8.27h1.85l-2.78,10.63h-2.25L109,17.74h-.09l-2.28,7.35h-2.26Z"/><path class="cls-2" d="M117.79,14.46h1.85V25.08h-1.85Z"/><path class="cls-2" d="M129.05,16.09h-3v9h-1.84v-9h-3V14.46h7.75Z"/><path class="cls-2" d="M132.21,24.46a4.77,4.77,0,0,1-1.66-2,6.55,6.55,0,0,1-.56-2.76,6.61,6.61,0,0,1,.56-2.78,4.71,4.71,0,0,1,1.66-2,4.64,4.64,0,0,1,2.6-.73,4.35,4.35,0,0,1,3,1.05,4.93,4.93,0,0,1,1.55,2.76h-1.79a2.92,2.92,0,0,0-1-1.59,2.65,2.65,0,0,0-1.77-.61,2.52,2.52,0,0,0-2.19,1.05,4.83,4.83,0,0,0-.74,2.8,4.79,4.79,0,0,0,.75,2.81,2.52,2.52,0,0,0,2.18,1.06,2.58,2.58,0,0,0,1.69-.57,3,3,0,0,0,1-1.45h1.78a4.78,4.78,0,0,1-1.54,2.63,4.36,4.36,0,0,1-2.94,1A4.56,4.56,0,0,1,132.21,24.46Z"/><path class="cls-2" d="M149.29,14.46V25.08h-1.85V20.47h-4.7v4.61H140.9V14.46h1.84V19h4.7V14.46Z"/></g></g></svg>