<svg xmlns="http://www.w3.org/2000/svg" viewBox="0 0 161.07 39.95"><defs><style>.cls-1{fill:#00ab58;}</style></defs><g id="Camada_2" data-name="Camada 2"><g id="Livestream"><path class="cls-1" d="M152.83,40H8.24A8.25,8.25,0,0,1,0,31.71V8.24A8.25,8.25,0,0,1,8.24,0H152.83a8.25,8.25,0,0,1,8.24,8.24V31.71A8.25,8.25,0,0,1,152.83,40ZM8.24.5A7.75,7.75,0,0,0,.5,8.24V31.71a7.75,7.75,0,0,0,7.74,7.74H152.83a7.75,7.75,0,0,0,7.74-7.74V8.24A7.75,7.75,0,0,0,152.83.5Z"/><path class="cls-1" d="M11.53,14.71h1.85l2,8.27h.09l2.6-8.27h1.63L22.3,23h.09l2-8.27h1.85L23.48,25.34H21.22L18.93,18h-.09l-2.27,7.35H14.31Z"/><path class="cls-1" d="M32.46,22.55H28.59l-.94,2.78H25.79l3.88-10.62H31.4l3.88,10.62H33.41ZM32,21.13,30.55,17h-.08l-1.39,4.13Z"/><path class="cls-1" d="M42.8,16.34h-3v9H38v-9h-3V14.71H42.8Z"/><path class="cls-1" d="M46,24.71a4.7,4.7,0,0,1-1.66-2,7,7,0,0,1,0-5.54,4.64,4.64,0,0,1,1.66-2,4.58,4.58,0,0,1,2.59-.73,4.39,4.39,0,0,1,3,1.05,5,5,0,0,1,1.54,2.76H51.33a2.92,2.92,0,0,0-1-1.59,2.63,2.63,0,0,0-1.77-.61,2.49,2.49,0,0,0-2.18,1.05,4.76,4.76,0,0,0-.75,2.8,4.79,4.79,0,0,0,.75,2.81,2.52,2.52,0,0,0,2.18,1.06,2.61,2.61,0,0,0,1.7-.57,3,3,0,0,0,1-1.45h1.79a4.86,4.86,0,0,1-1.55,2.63,4.36,4.36,0,0,1-2.94,1A4.51,4.51,0,0,1,46,24.71Z"/><path class="cls-1" d="M63,14.71V25.33H61.19V20.72h-4.7v4.61H54.65V14.71h1.84v4.55h4.7V14.71Z"/><path class="cls-1" d="M70.36,24.74a4.49,4.49,0,0,1-1.65-1.95A6.73,6.73,0,0,1,68.15,20a6.83,6.83,0,0,1,.56-2.8,4.59,4.59,0,0,1,1.66-2,5.07,5.07,0,0,1,5.24,0,4.55,4.55,0,0,1,1.65,2A6.84,6.84,0,0,1,77.82,20a6.73,6.73,0,0,1-.56,2.78,4.49,4.49,0,0,1-1.65,1.95,4.72,4.72,0,0,1-2.61.71A4.77,4.77,0,0,1,70.36,24.74Zm4.75-2A4.65,4.65,0,0,0,75.87,20,5.37,5.37,0,0,0,75.53,18a3.13,3.13,0,0,0-1-1.38,2.4,2.4,0,0,0-1.55-.5,2.43,2.43,0,0,0-1.56.5,3.17,3.17,0,0,0-1,1.38A5.46,5.46,0,0,0,70.1,20a5.31,5.31,0,0,0,.34,1.93,3,3,0,0,0,1,1.36,2.55,2.55,0,0,0,1.58.5A2.45,2.45,0,0,0,75.11,22.72Z"/><path class="cls-1" d="M79.49,14.71h2.12l4.78,7.75h0V14.71h1.82V25.34H86.13l-4.76-7.58h-.06v7.58H79.49Z"/><path class="cls-1" d="M101.05,16.34h-3v9H96.26v-9h-3V14.71h7.75Z"/><path class="cls-1" d="M101.84,14.71h1.85l2,8.27h.09l2.61-8.27H110L112.6,23h.09l2-8.27h1.85l-2.78,10.63h-2.26L109.24,18h-.09l-2.28,7.35h-2.26Z"/><path class="cls-1" d="M118,14.71h1.85V25.33H118Z"/><path class="cls-1" d="M129.3,16.34h-3v9H124.5v-9h-3V14.71h7.75Z"/><path class="cls-1" d="M132.46,24.71a4.77,4.77,0,0,1-1.66-2,7,7,0,0,1,0-5.54,4.71,4.71,0,0,1,1.66-2,4.64,4.64,0,0,1,2.6-.73,4.35,4.35,0,0,1,3,1.05,4.93,4.93,0,0,1,1.55,2.76h-1.79a2.92,2.92,0,0,0-1-1.59,2.65,2.65,0,0,0-1.77-.61,2.52,2.52,0,0,0-2.19,1.05,4.83,4.83,0,0,0-.74,2.8,4.79,4.79,0,0,0,.75,2.81,2.52,2.52,0,0,0,2.18,1.06,2.58,2.58,0,0,0,1.69-.57,3,3,0,0,0,1-1.45h1.78A4.78,4.78,0,0,1,138,24.44a4.36,4.36,0,0,1-2.94,1A4.56,4.56,0,0,1,132.46,24.71Z"/><path class="cls-1" d="M149.54,14.71V25.33h-1.85V20.72H143v4.61h-1.84V14.71H143v4.55h4.7V14.71Z"/></g></g></svg>