<svg xmlns="http://www.w3.org/2000/svg" viewBox="0 0 46.03 53.46"><defs><style>.cls-1{fill:#00e877;}.cls-2{fill:#00c465;}.cls-3{fill:#fff;}</style></defs><g id="Camada_2" data-name="Camada 2"><g id="us"><path class="cls-1" d="M29.1,8.53a8.62,8.62,0,1,1-12.18,0,8.61,8.61,0,0,1,12.18,0Z"/><path class="cls-2" d="M25.58,29a14.62,14.62,0,1,0-5.14,0L16,35a1,1,0,0,0,.84,1.67H19v15.8a1,1,0,0,0,1,1h6a1,1,0,0,0,1.05-1V36.62h2.2a1.05,1.05,0,0,0,.94-.57,1.07,1.07,0,0,0-.11-1.1Zm-15.1-14.4A12.54,12.54,0,1,1,24.13,27.1l-.28-.38a1.06,1.06,0,0,0-1.67,0l-.29.38A12.52,12.52,0,0,1,10.48,14.62ZM26,34.54a1,1,0,0,0-1,1V51.37H21.08V35.58a1,1,0,0,0-1-1H18.89L23,29.08l4.13,5.46Z"/><path class="cls-2" d="M45.82,43.71l-6.23-8.23a1.06,1.06,0,0,0-1.67,0l-6.23,8.23a1,1,0,0,0-.1,1.09,1,1,0,0,0,.94.58h2.2v7a1,1,0,0,0,1,1h6a1,1,0,0,0,1-1v-7H45a1,1,0,0,0,.94-.58,1.07,1.07,0,0,0-.1-1.09Zm-4.09-.42a1,1,0,0,0-1,1.05v7H36.82v-7a1,1,0,0,0-1-1.05H34.63l4.12-5.45,4.13,5.45Z"/><path class="cls-2" d="M8.1,35.48a1,1,0,0,0-.83-.41,1,1,0,0,0-.83.41L.21,43.71a1,1,0,0,0-.1,1.09,1,1,0,0,0,.93.58H3.25v7a1,1,0,0,0,1,1h6a1,1,0,0,0,1.05-1v-7h2.2a1,1,0,0,0,.83-1.67Zm2.15,7.81a1,1,0,0,0-1,1.05v7H5.34v-7a1,1,0,0,0-1-1.05H3.14l4.13-5.45,4.13,5.45Z"/><path class="cls-3" d="M26.53,18.28a3.18,3.18,0,0,1-1.29,1.07,5,5,0,0,1-1.86.42V21h-.73V19.76a4.41,4.41,0,0,1-2-.62A3.42,3.42,0,0,1,19,16.31h2.36a1.79,1.79,0,0,0,.34.86,1.52,1.52,0,0,0,.94.6V15.46l-.24-.06A9.82,9.82,0,0,1,21,14.91,3.42,3.42,0,0,1,19.82,14a2.41,2.41,0,0,1-.54-1.63,2.57,2.57,0,0,1,.91-2.06,4,4,0,0,1,2.46-.87V8.27h.73V9.44a3.64,3.64,0,0,1,2.55,1,3.32,3.32,0,0,1,.9,2.3H24.59a1.67,1.67,0,0,0-.3-.89,1.31,1.31,0,0,0-.91-.55v2.25l.72.19a5.15,5.15,0,0,1,2.11,1,2.4,2.4,0,0,1,.79,1.9A2.72,2.72,0,0,1,26.53,18.28ZM21.9,13a2.34,2.34,0,0,0,.75.39V11.3a1.54,1.54,0,0,0-.79.33.89.89,0,0,0,0,1.37Zm2.47,4.48a.9.9,0,0,0,.38-.72.81.81,0,0,0-.4-.73,2.57,2.57,0,0,0-.85-.36l-.12,0v2.19A1.71,1.71,0,0,0,24.37,17.48Z"/></g></g></svg>