<svg xmlns="http://www.w3.org/2000/svg" viewBox="0 0 66.2 51.37"><defs><style>.cls-1{fill:#00e877;}.cls-2{fill:#00c465;}.cls-3{fill:none;}.cls-4{fill:#fff;}</style></defs><g id="Camada_2" data-name="Camada 2"><g id="us"><path class="cls-1" d="M46.48,25.69A13.39,13.39,0,1,1,33.09,12.3,13.39,13.39,0,0,1,46.48,25.69Z"/><path class="cls-2" d="M65.7,30.33a1.29,1.29,0,0,0-1.81.22c-5.34,6.78-16.43,18.16-30.8,18.16S7.66,37.36,2.33,30.59a1.3,1.3,0,0,0-2,1.61c5.62,7.13,17.36,19.09,32.79,19.09s27.21-12,32.83-19.15a1.29,1.29,0,0,0-.22-1.81Z"/><path class="cls-2" d="M.49,21a1.28,1.28,0,0,0,.8.28,1.32,1.32,0,0,0,1-.49C7.64,14,18.73,2.67,33.09,2.67S58.52,14,63.85,20.78a1.29,1.29,0,0,0,2-1.6C60.26,12,48.52.08,33.09.08S5.9,12.06.28,19.21A1.29,1.29,0,0,0,.49,21Z"/><rect class="cls-3" width="66.2" height="51.37"/><path class="cls-2" d="M54.74,15.42a42.37,42.37,0,0,0-9.44-6.6,27.27,27.27,0,0,0-12.21-3,27.3,27.3,0,0,0-12.21,3,42.32,42.32,0,0,0-9.43,6.6A54.59,54.59,0,0,0,3.1,25a1.29,1.29,0,0,0,0,1.41A54.19,54.19,0,0,0,11.45,36a42.32,42.32,0,0,0,9.43,6.6,27.3,27.3,0,0,0,12.21,3,27.27,27.27,0,0,0,12.21-3A42.37,42.37,0,0,0,54.74,36a53.87,53.87,0,0,0,8.34-9.56,1.29,1.29,0,0,0,0-1.41,54.27,54.27,0,0,0-8.34-9.56ZM53,34c-4.5,4.09-11.61,9-19.91,9s-15.37-4.86-19.86-8.93a55.05,55.05,0,0,1-7.48-8.39,54.26,54.26,0,0,1,7.43-8.35c4.51-4.1,11.61-9,19.91-9S48.46,13.22,53,17.29a54,54,0,0,1,7.48,8.4A55.23,55.23,0,0,1,53,34Z"/><path class="cls-4" d="M37,29.78A3.5,3.5,0,0,1,35.59,31a5.62,5.62,0,0,1-2.07.48v1.34H32.7V31.43a5,5,0,0,1-2.22-.69,3.89,3.89,0,0,1-1.37-1.43,3.67,3.67,0,0,1-.48-1.73h2.63a2.15,2.15,0,0,0,.38,1,1.72,1.72,0,0,0,1.06.67V26.62l-.27-.06A11.8,11.8,0,0,1,30.84,26a4,4,0,0,1-1.31-1,2.72,2.72,0,0,1-.6-1.82,2.86,2.86,0,0,1,1-2.3,4.47,4.47,0,0,1,2.75-1V18.58h.82v1.31A4.1,4.1,0,0,1,36.37,21a3.77,3.77,0,0,1,1,2.58h-2.5a1.94,1.94,0,0,0-.34-1,1.48,1.48,0,0,0-1-.61V24.5l.8.22a5.61,5.61,0,0,1,2.36,1.15A2.66,2.66,0,0,1,37.57,28,3.12,3.12,0,0,1,37,29.78Zm-5.18-5.9a2.55,2.55,0,0,0,.84.42V22a1.65,1.65,0,0,0-.88.37.92.92,0,0,0-.34.75A1,1,0,0,0,31.86,23.88Zm2.76,5a1,1,0,0,0,.43-.82.91.91,0,0,0-.45-.81,3,3,0,0,0-1-.41l-.13,0v2.45A2,2,0,0,0,34.62,28.89Z"/></g></g></svg>